<?xml version="1.0" standalone="no"?>
 <!DOCTYPE svg PUBLIC "-//W3C//DTD SVG 1.1//EN" 
 "http://www.w3.org/Graphics/SVG/1.1/DTD/svg11.dtd"> 
<svg xmlns="http://www.w3.org/2000/svg" version="1.1" 
    width="29.7002cm" height="21.0007cm" viewBox="0 0 116930 82680 ">
<title>SVG Picture created as lego-mag-B_Cu.svg date 2014/07/23 22:54:26 </title>
  <desc>Picture generated by PCBNEW </desc>
<g style="fill:#000000; fill-opacity:1;stroke:#000000; stroke-opacity:1;
stroke-linecap:round; stroke-linejoin:round; "
 transform="translate(0 0) scale(1 1)">
</g>
<g style="fill:#000000; fill-opacity:0.0; 
stroke:#000000; stroke-width:39.3701; stroke-opacity:1; 
stroke-linecap:round; stroke-linejoin:round;">
<rect x="-845466" y="-845466" width="0" height="0" rx="0" />
<rect x="-845466" y="-845466" width="0" height="0" rx="0" />
<path d="M-845466 -845466
L-845466 -845466
" />
<path d="M-845466 -845466
L-845466 -845466
" />
<path d="M-845466 -845466
L-845466 -845466
" />
<path d="M-845466 -845466
L-845466 -845466
" />
<path d="M-845466 -845466
L-845466 -845466
" />
</g>
<g style="fill:#000000; fill-opacity:0.0; 
stroke:#000000; stroke-width:118; stroke-opacity:1; 
stroke-linecap:round; stroke-linejoin:round;">
<path d="M-844988 -845255
L-845016 -845227
L-845100 -845199
L-845156 -845199
L-845241 -845227
L-845297 -845283
L-845325 -845339
L-845353 -845451
L-845353 845395
L-845325 845283
L-845297 845227
L-845241 845171
L-845156 845142
L-845100 845142
L-845016 845171
L-844988 845199
" />
<path d="M-844651 -845199
L-844707 -845227
L-844735 -845283
L-844735 845142
" />
<path d="M-844173 -845199
L-844173 845423
L-844201 845367
L-844257 845339
L-844370 845339
L-844426 845367
" />
<path d="M-844173 -845227
L-844229 -845199
L-844370 -845199
L-844426 -845227
L-844454 -845283
L-844454 -845339
L-844426 -845395
L-844370 -845423
L-844229 -845423
L-844173 -845451
" />
<path d="M-843639 845339
L-843639 -845199
" />
<path d="M-843892 845339
L-843892 -845283
L-843864 -845227
L-843808 -845199
L-843724 -845199
L-843667 -845227
L-843639 -845255
" />
<path d="M-843106 -845199
L-843106 845142
" />
<path d="M-843106 -845227
L-843162 -845199
L-843274 -845199
L-843330 -845227
L-843358 -845255
L-843386 -845311
L-843386 845451
L-843358 845395
L-843330 845367
L-843274 845339
L-843162 845339
L-843106 845367
" />
<path d="M-842825 -845199
L-842825 845339
" />
<path d="M-842825 845142
L-842853 845171
L-842825 845199
L-842796 845171
L-842825 845142
L-842825 845199
" />
<path d="M-842459 -845199
L-842516 -845227
L-842544 -845255
L-842572 -845311
L-842572 845451
L-842544 845395
L-842516 845367
L-842459 845339
L-842375 845339
L-842319 845367
L-842291 845395
L-842263 845451
L-842263 -845311
L-842291 -845255
L-842319 -845227
L-842375 -845199
L-842459 -845199
" />
<path d="M-841560 -845199
L-841560 845142
L-841364 -845367
L-841167 845142
L-841167 -845199
" />
<path d="M-840886 -845199
L-840886 845339
" />
<path d="M-840886 845142
L-840914 845171
L-840886 845199
L-840858 845171
L-840886 845142
L-840886 845199
" />
<path d="M-840352 845339
L-840352 -845114
L-840380 -845058
L-840408 -845030
L-840465 -845002
L-840549 -845002
L-840605 -845030
" />
<path d="M-840352 -845227
L-840408 -845199
L-840521 -845199
L-840577 -845227
L-840605 -845255
L-840633 -845311
L-840633 845451
L-840605 845395
L-840577 845367
L-840521 845339
L-840408 845339
L-840352 845367
" />
<path d="M-840071 845339
L-840071 -845199
" />
<path d="M-840071 845395
L-840043 845367
L-839987 845339
L-839903 845339
L-839846 845367
L-839818 845423
L-839818 -845199
" />
<path d="M-839285 -845199
L-839285 845423
L-839313 845367
L-839369 845339
L-839481 845339
L-839537 845367
" />
<path d="M-839285 -845227
L-839341 -845199
L-839481 -845199
L-839537 -845227
L-839566 -845283
L-839566 -845339
L-839537 -845395
L-839481 -845423
L-839341 -845423
L-839285 -845451
" />
<path d="M-839004 845339
L-839004 -845199
" />
<path d="M-839004 845395
L-838976 845367
L-838919 845339
L-838835 845339
L-838779 845367
L-838751 845423
L-838751 -845199
" />
<path d="M-838554 845339
L-838329 845339
" />
<path d="M-838470 845142
L-838470 -845283
L-838442 -845227
L-838386 -845199
L-838329 -845199
" />
<path d="M-838133 -845199
L-838133 845339
" />
<path d="M-838133 845142
L-838161 845171
L-838133 845199
L-838105 845171
L-838133 845142
L-838133 845199
" />
</g>
<g style="fill:#000000; fill-opacity:0.0; 
stroke:#000000; stroke-width:39.3701; stroke-opacity:1; 
stroke-linecap:round; stroke-linejoin:round;">
<path d="M-845353 -845227
L-845269 -845199
L-845128 -845199
L-845072 -845227
L-845044 -845255
L-845016 -845311
L-845016 -845367
L-845044 -845423
L-845072 -845451
L-845128 845451
L-845241 845423
L-845297 845395
L-845325 845367
L-845353 845311
L-845353 845255
L-845325 845199
L-845297 845171
L-845241 845142
L-845100 845142
L-845016 845171
" />
<path d="M-844763 -845199
L-844763 845142
" />
<path d="M-844510 -845199
L-844510 845423
L-844538 845367
L-844595 845339
L-844679 845339
L-844735 845367
L-844763 845395
" />
<path d="M-844005 -845227
L-844061 -845199
L-844173 -845199
L-844229 -845227
L-844257 -845283
L-844257 845423
L-844229 845367
L-844173 845339
L-844061 845339
L-844005 845367
L-843976 845423
L-843976 -845451
L-844257 -845395
" />
<path d="M-843499 -845227
L-843555 -845199
L-843667 -845199
L-843724 -845227
L-843752 -845283
L-843752 845423
L-843724 845367
L-843667 845339
L-843555 845339
L-843499 845367
L-843471 845423
L-843471 -845451
L-843752 -845395
" />
<path d="M-843302 845339
L-843077 845339
" />
<path d="M-843218 845142
L-843218 -845283
L-843190 -845227
L-843134 -845199
L-843077 -845199
" />
<path d="M-842881 -845255
L-842853 -845227
L-842881 -845199
L-842909 -845227
L-842881 -845255
L-842881 -845199
" />
<path d="M-842881 845367
L-842853 845395
L-842881 845423
L-842909 845395
L-842881 845367
L-842881 845423
" />
<path d="M-841729 845114
L-842235 -845058
" />
<path d="M-841532 -845199
L-841532 845142
" />
<path d="M-841279 -845199
L-841279 845423
L-841307 845367
L-841364 845339
L-841448 845339
L-841504 845367
L-841532 845395
" />
<path d="M-840914 -845199
L-840970 -845227
L-840998 -845255
L-841026 -845311
L-841026 845451
L-840998 845395
L-840970 845367
L-840914 845339
L-840830 845339
L-840774 845367
L-840746 845395
L-840717 845451
L-840717 -845311
L-840746 -845255
L-840774 -845227
L-840830 -845199
L-840914 -845199
" />
<path d="M-840465 -845199
L-840465 845339
" />
<path d="M-840465 845395
L-840436 845367
L-840380 845339
L-840296 845339
L-840240 845367
L-840212 845423
L-840212 -845199
" />
<path d="M-840212 845423
L-840184 845367
L-840127 845339
L-840043 845339
L-839987 845367
L-839959 845423
L-839959 -845199
" />
<path d="M-839453 -845227
L-839509 -845199
L-839622 -845199
L-839678 -845227
L-839706 -845283
L-839706 845423
L-839678 845367
L-839622 845339
L-839509 845339
L-839453 845367
L-839425 845423
L-839425 -845451
L-839706 -845395
" />
<path d="M-838751 845114
L-839256 -845058
" />
<path d="M-838301 -845227
L-838357 -845199
L-838470 -845199
L-838526 -845227
L-838554 -845255
L-838582 -845311
L-838582 845451
L-838554 845395
L-838526 845367
L-838470 845339
L-838357 845339
L-838301 845367
" />
<path d="M-837964 -845199
L-838020 -845227
L-838048 -845283
L-838048 845142
" />
<path d="M-837486 -845199
L-837486 845423
L-837515 845367
L-837571 845339
L-837683 845339
L-837739 845367
" />
<path d="M-837486 -845227
L-837543 -845199
L-837683 -845199
L-837739 -845227
L-837767 -845283
L-837767 -845339
L-837739 -845395
L-837683 -845423
L-837543 -845423
L-837486 -845451
" />
<path d="M-836953 845339
L-836953 -845199
" />
<path d="M-837206 845339
L-837206 -845283
L-837177 -845227
L-837121 -845199
L-837037 -845199
L-836981 -845227
L-836953 -845255
" />
<path d="M-836419 -845199
L-836419 845142
" />
<path d="M-836419 -845227
L-836475 -845199
L-836587 -845199
L-836644 -845227
L-836672 -845255
L-836700 -845311
L-836700 845451
L-836672 845395
L-836644 845367
L-836587 845339
L-836475 845339
L-836419 845367
" />
<path d="M-836194 845339
L-836054 -845199
" />
<path d="M-835913 845339
L-836054 -845199
L-836110 -845058
L-836138 -845030
L-836194 -845002
" />
<path d="M-835436 845339
L-835436 -845199
" />
<path d="M-835688 845339
L-835688 -845283
L-835660 -845227
L-835604 -845199
L-835520 -845199
L-835464 -845227
L-835436 -845255
" />
<path d="M-835183 -845227
L-835126 -845199
L-835014 -845199
L-834958 -845227
L-834930 -845283
L-834930 -845311
L-834958 -845367
L-835014 -845395
L-835098 -845395
L-835155 -845423
L-835183 845451
L-835183 845423
L-835155 845367
L-835098 845339
L-835014 845339
L-834958 845367
" />
<path d="M-834256 845114
L-834761 -845058
" />
<path d="M-834059 -845199
L-834059 845142
L-833918 845142
L-833834 845171
L-833778 845227
L-833750 845283
L-833722 845395
L-833722 -845451
L-833750 -845339
L-833778 -845283
L-833834 -845227
L-833918 -845199
L-834059 -845199
" />
<path d="M-833469 -845199
L-833469 845339
" />
<path d="M-833469 845451
L-833441 845395
L-833413 845367
L-833356 845339
L-833300 845339
" />
<path d="M-833019 -845199
L-833076 -845227
L-833104 -845255
L-833132 -845311
L-833132 845451
L-833104 845395
L-833076 845367
L-833019 845339
L-832935 845339
L-832879 845367
L-832851 845395
L-832823 845451
L-832823 -845311
L-832851 -845255
L-832879 -845227
L-832935 -845199
L-833019 -845199
" />
<path d="M-832570 845339
L-832570 -845002
" />
<path d="M-832570 845367
L-832514 845339
L-832401 845339
L-832345 845367
L-832317 845395
L-832289 845451
L-832289 -845311
L-832317 -845255
L-832345 -845227
L-832401 -845199
L-832514 -845199
L-832570 -845227
" />
<path d="M-832036 -845199
L-832036 845142
" />
<path d="M-832036 845367
L-831980 845339
L-831867 845339
L-831811 845367
L-831783 845395
L-831755 845451
L-831755 -845311
L-831783 -845255
L-831811 -845227
L-831867 -845199
L-831980 -845199
L-832036 -845227
" />
<path d="M-831418 -845199
L-831474 -845227
L-831502 -845255
L-831530 -845311
L-831530 845451
L-831502 845395
L-831474 845367
L-831418 845339
L-831334 845339
L-831277 845367
L-831249 845395
L-831221 845451
L-831221 -845311
L-831249 -845255
L-831277 -845227
L-831334 -845199
L-831418 -845199
" />
<path d="M-831025 -845199
L-830716 845339
" />
<path d="M-831025 845339
L-830716 -845199
" />
<path d="M-830069 845114
L-830575 -845058
" />
<path d="M-829873 -845199
L-829873 845142
" />
<path d="M-829816 -845423
L-829648 -845199
" />
<path d="M-829648 845339
L-829873 -845367
" />
<path d="M-829395 -845199
L-829395 845339
" />
<path d="M-829395 845142
L-829423 845171
L-829395 845199
L-829367 845171
L-829395 845142
L-829395 845199
" />
<path d="M-828861 -845227
L-828917 -845199
L-829030 -845199
L-829086 -845227
L-829114 -845255
L-829142 -845311
L-829142 845451
L-829114 845395
L-829086 845367
L-829030 845339
L-828917 845339
L-828861 845367
" />
<path d="M-828356 -845199
L-828356 845423
L-828384 845367
L-828440 845339
L-828552 845339
L-828608 845367
" />
<path d="M-828356 -845227
L-828412 -845199
L-828552 -845199
L-828608 -845227
L-828636 -845283
L-828636 -845339
L-828608 -845395
L-828552 -845423
L-828412 -845423
L-828356 -845451
" />
<path d="M-827822 -845199
L-827822 845142
" />
<path d="M-827822 -845227
L-827878 -845199
L-827990 -845199
L-828046 -845227
L-828075 -845255
L-828103 -845311
L-828103 845451
L-828075 845395
L-828046 845367
L-827990 845339
L-827878 845339
L-827822 845367
" />
<path d="M-827119 845114
L-827625 -845058
" />
<path d="M-826838 -845199
L-826895 -845227
L-826923 -845283
L-826923 845142
" />
<path d="M-826389 -845227
L-826445 -845199
L-826557 -845199
L-826614 -845227
L-826642 -845283
L-826642 845423
L-826614 845367
L-826557 845339
L-826445 845339
L-826389 845367
L-826361 845423
L-826361 -845451
L-826642 -845395
" />
<path d="M-825855 845339
L-825855 -845114
L-825883 -845058
L-825911 -845030
L-825967 -845002
L-826052 -845002
L-826108 -845030
" />
<path d="M-825855 -845227
L-825911 -845199
L-826024 -845199
L-826080 -845227
L-826108 -845255
L-826136 -845311
L-826136 845451
L-826108 845395
L-826080 845367
L-826024 845339
L-825911 845339
L-825855 845367
" />
<path d="M-825490 -845199
L-825546 -845227
L-825574 -845255
L-825602 -845311
L-825602 845451
L-825574 845395
L-825546 845367
L-825490 845339
L-825406 845339
L-825349 845367
L-825321 845395
L-825293 845451
L-825293 -845311
L-825321 -845255
L-825349 -845227
L-825406 -845199
L-825490 -845199
" />
<path d="M-825040 -845423
L-824591 -845423
" />
<path d="M-824310 -845199
L-824310 845339
" />
<path d="M-824310 845395
L-824282 845367
L-824226 845339
L-824141 845339
L-824085 845367
L-824057 845423
L-824057 -845199
" />
<path d="M-824057 845423
L-824029 845367
L-823973 845339
L-823888 845339
L-823832 845367
L-823804 845423
L-823804 -845199
" />
<path d="M-823270 -845199
L-823270 845423
L-823298 845367
L-823355 845339
L-823467 845339
L-823523 845367
" />
<path d="M-823270 -845227
L-823326 -845199
L-823467 -845199
L-823523 -845227
L-823551 -845283
L-823551 -845339
L-823523 -845395
L-823467 -845423
L-823326 -845423
L-823270 -845451
" />
<path d="M-822736 845339
L-822736 -845114
L-822765 -845058
L-822793 -845030
L-822849 -845002
L-822933 -845002
L-822989 -845030
" />
<path d="M-822736 -845227
L-822793 -845199
L-822905 -845199
L-822961 -845227
L-822989 -845255
L-823017 -845311
L-823017 845451
L-822989 845395
L-822961 845367
L-822905 845339
L-822793 845339
L-822736 845367
" />
<path d="M-822034 845114
L-822540 -845058
" />
<path d="M-821753 -845199
L-821809 -845227
L-821837 -845283
L-821837 845142
" />
<path d="M-821304 -845227
L-821360 -845199
L-821472 -845199
L-821528 -845227
L-821556 -845283
L-821556 845423
L-821528 845367
L-821472 845339
L-821360 845339
L-821304 845367
L-821276 845423
L-821276 -845451
L-821556 -845395
" />
<path d="M-820770 845339
L-820770 -845114
L-820798 -845058
L-820826 -845030
L-820882 -845002
L-820966 -845002
L-821023 -845030
" />
<path d="M-820770 -845227
L-820826 -845199
L-820938 -845199
L-820995 -845227
L-821023 -845255
L-821051 -845311
L-821051 845451
L-821023 845395
L-820995 845367
L-820938 845339
L-820826 845339
L-820770 845367
" />
<path d="M-820405 -845199
L-820461 -845227
L-820489 -845255
L-820517 -845311
L-820517 845451
L-820489 845395
L-820461 845367
L-820405 845339
L-820320 845339
L-820264 845367
L-820236 845395
L-820208 845451
L-820208 -845311
L-820236 -845255
L-820264 -845227
L-820320 -845199
L-820405 -845199
" />
<path d="M-819955 -845423
L-819506 -845423
" />
<path d="M-819225 -845199
L-819225 845339
" />
<path d="M-819225 845395
L-819196 845367
L-819140 845339
L-819056 845339
L-819000 845367
L-818972 845423
L-818972 -845199
" />
<path d="M-818972 845423
L-818944 845367
L-818887 845339
L-818803 845339
L-818747 845367
L-818719 845423
L-818719 -845199
" />
<path d="M-818185 -845199
L-818185 845423
L-818213 845367
L-818269 845339
L-818382 845339
L-818438 845367
" />
<path d="M-818185 -845227
L-818241 -845199
L-818382 -845199
L-818438 -845227
L-818466 -845283
L-818466 -845339
L-818438 -845395
L-818382 -845423
L-818241 -845423
L-818185 -845451
" />
<path d="M-817651 845339
L-817651 -845114
L-817679 -845058
L-817707 -845030
L-817764 -845002
L-817848 -845002
L-817904 -845030
" />
<path d="M-817651 -845227
L-817707 -845199
L-817820 -845199
L-817876 -845227
L-817904 -845255
L-817932 -845311
L-817932 845451
L-817904 845395
L-817876 845367
L-817820 845339
L-817707 845339
L-817651 845367
" />
<path d="M-817370 -845255
L-817342 -845227
L-817370 -845199
L-817398 -845227
L-817370 -845255
L-817370 -845199
" />
<path d="M-817089 -845199
L-817089 845142
" />
<path d="M-817033 -845423
L-816865 -845199
" />
<path d="M-816865 845339
L-817089 -845367
" />
<path d="M-816612 -845199
L-816612 845339
" />
<path d="M-816612 845142
L-816640 845171
L-816612 845199
L-816584 845171
L-816612 845142
L-816612 845199
" />
<path d="M-816078 -845227
L-816134 -845199
L-816246 -845199
L-816303 -845227
L-816331 -845255
L-816359 -845311
L-816359 845451
L-816331 845395
L-816303 845367
L-816246 845339
L-816134 845339
L-816078 845367
" />
<path d="M-815572 -845199
L-815572 845423
L-815600 845367
L-815656 845339
L-815769 845339
L-815825 845367
" />
<path d="M-815572 -845227
L-815628 -845199
L-815769 -845199
L-815825 -845227
L-815853 -845283
L-815853 -845339
L-815825 -845395
L-815769 -845423
L-815628 -845423
L-815572 -845451
" />
<path d="M-815038 -845199
L-815038 845142
" />
<path d="M-815038 -845227
L-815095 -845199
L-815207 -845199
L-815263 -845227
L-815291 -845255
L-815319 -845311
L-815319 845451
L-815291 845395
L-815263 845367
L-815207 845339
L-815095 845339
L-815038 845367
" />
<path d="M-814898 -845142
L-814448 -845142
" />
<path d="M-814308 845339
L-814308 -845002
" />
<path d="M-814308 845367
L-814252 845339
L-814139 845339
L-814083 845367
L-814055 845395
L-814027 845451
L-814027 -845311
L-814055 -845255
L-814083 -845227
L-814139 -845199
L-814252 -845199
L-814308 -845227
" />
<path d="M-813521 -845227
L-813577 -845199
L-813690 -845199
L-813746 -845227
L-813774 -845255
L-813802 -845311
L-813802 845451
L-813774 845395
L-813746 845367
L-813690 845339
L-813577 845339
L-813521 845367
" />
<path d="M-813268 -845199
L-813268 845142
" />
<path d="M-813268 845367
L-813212 845339
L-813100 845339
L-813044 845367
L-813016 845395
L-812987 845451
L-812987 -845311
L-813016 -845255
L-813044 -845227
L-813100 -845199
L-813212 -845199
L-813268 -845227
" />
<path d="M-845128 845423
L-845325 845423
" />
<path d="M-845325 -845199
L-845325 845142
L-845044 845142
" />
<path d="M-844819 -845199
L-844819 845339
" />
<path d="M-844819 845142
L-844847 845171
L-844819 845199
L-844791 845171
L-844819 845142
L-844819 845199
" />
<path d="M-844454 -845199
L-844510 -845227
L-844538 -845283
L-844538 845142
" />
<path d="M-844005 -845227
L-844061 -845199
L-844173 -845199
L-844229 -845227
L-844257 -845283
L-844257 845423
L-844229 845367
L-844173 845339
L-844061 845339
L-844005 845367
L-843976 845423
L-843976 -845451
L-844257 -845395
" />
<path d="M-843724 -845255
L-843696 -845227
L-843724 -845199
L-843752 -845227
L-843724 -845255
L-843724 -845199
" />
<path d="M-843724 845367
L-843696 845395
L-843724 845423
L-843752 845395
L-843724 845367
L-843724 845423
" />
</g>
<g style="fill:#000000; fill-opacity:0.0; 
stroke:#000000; stroke-width:118; stroke-opacity:1; 
stroke-linecap:round; stroke-linejoin:round;">
<path d="M-845409 845142
L-845072 845142
" />
<path d="M-845241 -845199
L-845241 845142
" />
<path d="M-844876 -845199
L-844876 845339
" />
<path d="M-844876 845142
L-844904 845171
L-844876 845199
L-844847 845171
L-844876 845142
L-844876 845199
" />
<path d="M-844679 845339
L-844454 845339
" />
<path d="M-844595 845142
L-844595 -845283
L-844566 -845227
L-844510 -845199
L-844454 -845199
" />
<path d="M-844173 -845199
L-844229 -845227
L-844257 -845283
L-844257 845142
" />
<path d="M-843724 -845227
L-843780 -845199
L-843892 -845199
L-843948 -845227
L-843976 -845283
L-843976 845423
L-843948 845367
L-843892 845339
L-843780 845339
L-843724 845367
L-843696 845423
L-843696 -845451
L-843976 -845395
" />
<path d="M-843443 -845255
L-843415 -845227
L-843443 -845199
L-843471 -845227
L-843443 -845255
L-843443 -845199
" />
<path d="M-843443 845367
L-843415 845395
L-843443 845423
L-843471 845395
L-843443 845367
L-843443 845423
" />
<path d="M-842431 -845199
L-842712 -845199
L-842712 845142
" />
<path d="M-842010 -845227
L-842066 -845199
L-842178 -845199
L-842235 -845227
L-842263 -845283
L-842263 845423
L-842235 845367
L-842178 845339
L-842066 845339
L-842010 845367
L-841982 845423
L-841982 -845451
L-842263 -845395
" />
<path d="M-841476 845339
L-841476 -845114
L-841504 -845058
L-841532 -845030
L-841588 -845002
L-841673 -845002
L-841729 -845030
" />
<path d="M-841476 -845227
L-841532 -845199
L-841645 -845199
L-841701 -845227
L-841729 -845255
L-841757 -845311
L-841757 845451
L-841729 845395
L-841701 845367
L-841645 845339
L-841532 845339
L-841476 845367
" />
<path d="M-841111 -845199
L-841167 -845227
L-841195 -845255
L-841223 -845311
L-841223 845451
L-841195 845395
L-841167 845367
L-841111 845339
L-841026 845339
L-840970 845367
L-840942 845395
L-840914 845451
L-840914 -845311
L-840942 -845255
L-840970 -845227
L-841026 -845199
L-841111 -845199
" />
<path d="M-840212 -845199
L-840212 845142
L-840015 -845367
L-839818 845142
L-839818 -845199
" />
<path d="M-839285 -845199
L-839285 845423
L-839313 845367
L-839369 845339
L-839481 845339
L-839537 845367
" />
<path d="M-839285 -845227
L-839341 -845199
L-839481 -845199
L-839537 -845227
L-839566 -845283
L-839566 -845339
L-839537 -845395
L-839481 -845423
L-839341 -845423
L-839285 -845451
" />
<path d="M-838751 845339
L-838751 -845114
L-838779 -845058
L-838807 -845030
L-838863 -845002
L-838947 -845002
L-839004 -845030
" />
<path d="M-838751 -845227
L-838807 -845199
L-838919 -845199
L-838976 -845227
L-839004 -845255
L-839032 -845311
L-839032 845451
L-839004 845395
L-838976 845367
L-838919 845339
L-838807 845339
L-838751 845367
" />
</g>
<g style="fill:#000000; fill-opacity:0.0; 
stroke:#000000; stroke-width:39.3701; stroke-opacity:1; 
stroke-linecap:round; stroke-linejoin:round;">
<path d="M-845325 -845199
L-845325 845142
" />
<path d="M-844791 -845199
L-844791 845142
" />
<path d="M-844791 -845227
L-844847 -845199
L-844960 -845199
L-845016 -845227
L-845044 -845255
L-845072 -845311
L-845072 845451
L-845044 845395
L-845016 845367
L-844960 845339
L-844847 845339
L-844791 845367
" />
<path d="M-844510 -845255
L-844482 -845227
L-844510 -845199
L-844538 -845227
L-844510 -845255
L-844510 -845199
" />
<path d="M-844510 845367
L-844482 845395
L-844510 845423
L-844538 845395
L-844510 845367
L-844510 845423
" />
<path d="M-843471 -845199
L-843808 -845199
" />
<path d="M-843639 -845199
L-843639 845142
L-843696 845227
L-843752 845283
L-843808 845311
" />
<path d="M-842796 845114
L-843302 -845058
" />
<path d="M-842291 -845199
L-842628 -845199
" />
<path d="M-842459 -845199
L-842459 845142
L-842516 845227
L-842572 845283
L-842628 845311
" />
<path d="M-845353 -845227
L-845269 -845199
L-845128 -845199
L-845072 -845227
L-845044 -845255
L-845016 -845311
L-845016 -845367
L-845044 -845423
L-845072 -845451
L-845128 845451
L-845241 845423
L-845297 845395
L-845325 845367
L-845353 845311
L-845353 845255
L-845325 845199
L-845297 845171
L-845241 845142
L-845100 845142
L-845016 845171
" />
<path d="M-844763 -845199
L-844763 845339
" />
<path d="M-844763 845142
L-844791 845171
L-844763 845199
L-844735 845171
L-844763 845142
L-844763 845199
" />
<path d="M-844538 845339
L-844229 845339
L-844538 -845199
L-844229 -845199
" />
<path d="M-843780 -845227
L-843836 -845199
L-843948 -845199
L-844005 -845227
L-844033 -845283
L-844033 845423
L-844005 845367
L-843948 845339
L-843836 845339
L-843780 845367
L-843752 845423
L-843752 -845451
L-844033 -845395
" />
<path d="M-843499 -845255
L-843471 -845227
L-843499 -845199
L-843527 -845227
L-843499 -845255
L-843499 -845199
" />
<path d="M-843499 845367
L-843471 845395
L-843499 845423
L-843527 845395
L-843499 845367
L-843499 845423
" />
<path d="M-842796 -845367
L-842516 -845367
" />
<path d="M-842853 -845199
L-842656 845142
L-842459 -845199
" />
<path d="M-842010 845339
L-842010 -845199
" />
<path d="M-842150 845114
L-842291 -845395
L-841926 -845395
" />
</g>
<g style="fill:#000000; fill-opacity:0.0; 
stroke:#000000; stroke-width:118; stroke-opacity:1; 
stroke-linecap:round; stroke-linejoin:round;">
<path d="M-844988 -845199
L-845185 845451
" />
<path d="M-845325 -845199
L-845325 845142
L-845100 845142
L-845044 845171
L-845016 845199
L-844988 845255
L-844988 845339
L-845016 845395
L-845044 845423
L-845100 845451
L-845325 845451
" />
<path d="M-844510 -845227
L-844566 -845199
L-844679 -845199
L-844735 -845227
L-844763 -845283
L-844763 845423
L-844735 845367
L-844679 845339
L-844566 845339
L-844510 845367
L-844482 845423
L-844482 -845451
L-844763 -845395
" />
<path d="M-844286 845339
L-844145 -845199
L-844005 845339
" />
<path d="M-843780 -845255
L-843752 -845227
L-843780 -845199
L-843808 -845227
L-843780 -845255
L-843780 -845199
" />
<path d="M-843780 845367
L-843752 845395
L-843780 845423
L-843808 845395
L-843780 845367
L-843780 845423
" />
<path d="M-842740 -845199
L-843077 -845199
" />
<path d="M-842909 -845199
L-842909 845142
L-842965 845227
L-843021 845283
L-843077 845311
" />
</g>
<g style="fill:#000000; fill-opacity:0.0; 
stroke:#000000; stroke-width:39.3701; stroke-opacity:1; 
stroke-linecap:round; stroke-linejoin:round;">
<path d="M-845325 -845199
L-845325 845142
" />
<path d="M-844988 -845199
L-845241 845395
" />
<path d="M-844988 845142
L-845325 -845451
" />
<path d="M-844735 -845199
L-844735 845339
" />
<path d="M-844735 845142
L-844763 845171
L-844735 845199
L-844707 845171
L-844735 845142
L-844735 845199
" />
<path d="M-844117 -845255
L-844145 -845227
L-844229 -845199
L-844286 -845199
L-844370 -845227
L-844426 -845283
L-844454 -845339
L-844482 -845451
L-844482 845395
L-844454 845283
L-844426 845227
L-844370 845171
L-844286 845142
L-844229 845142
L-844145 845171
L-844117 845199
" />
<path d="M-843611 -845199
L-843611 845423
L-843639 845367
L-843696 845339
L-843808 845339
L-843864 845367
" />
<path d="M-843611 -845227
L-843667 -845199
L-843808 -845199
L-843864 -845227
L-843892 -845283
L-843892 -845339
L-843864 -845395
L-843808 -845423
L-843667 -845423
L-843611 -845451
" />
<path d="M-843077 -845199
L-843077 845142
" />
<path d="M-843077 -845227
L-843134 -845199
L-843246 -845199
L-843302 -845227
L-843330 -845255
L-843358 -845311
L-843358 845451
L-843330 845395
L-843302 845367
L-843246 845339
L-843134 845339
L-843077 845367
" />
<path d="M-842347 845423
L-842150 845423
" />
<path d="M-842066 -845199
L-842347 -845199
L-842347 845142
L-842066 845142
" />
<path d="M-841813 -845255
L-841785 -845227
L-841813 -845199
L-841841 -845227
L-841813 -845255
L-841813 -845199
" />
<path d="M-841532 -845199
L-841532 845142
L-841392 845142
L-841307 845171
L-841251 845227
L-841223 845283
L-841195 845395
L-841195 -845451
L-841223 -845339
L-841251 -845283
L-841307 -845227
L-841392 -845199
L-841532 -845199
" />
<path d="M-840942 -845255
L-840914 -845227
L-840942 -845199
L-840970 -845227
L-840942 -845255
L-840942 -845199
" />
<path d="M-840689 -845367
L-840408 -845367
" />
<path d="M-840746 -845199
L-840549 845142
L-840352 -845199
" />
<path d="M-840156 -845255
L-840127 -845227
L-840156 -845199
L-840184 -845227
L-840156 -845255
L-840156 -845199
" />
<path d="M-838976 845339
L-838976 -845002
" />
<path d="M-838976 845367
L-838919 845339
L-838807 845339
L-838751 845367
L-838723 845395
L-838695 845451
L-838695 -845311
L-838723 -845255
L-838751 -845227
L-838807 -845199
L-838919 -845199
L-838976 -845227
" />
<path d="M-838189 -845227
L-838245 -845199
L-838357 -845199
L-838414 -845227
L-838442 -845255
L-838470 -845311
L-838470 845451
L-838442 845395
L-838414 845367
L-838357 845339
L-838245 845339
L-838189 845367
" />
<path d="M-837936 -845199
L-837936 845142
" />
<path d="M-837936 845367
L-837880 845339
L-837767 845339
L-837711 845367
L-837683 845395
L-837655 845451
L-837655 -845311
L-837683 -845255
L-837711 -845227
L-837767 -845199
L-837880 -845199
L-837936 -845227
" />
<path d="M-837402 845339
L-837402 -845199
" />
<path d="M-837402 845395
L-837374 845367
L-837318 845339
L-837234 845339
L-837177 845367
L-837149 845423
L-837149 -845199
" />
<path d="M-836644 -845227
L-836700 -845199
L-836812 -845199
L-836868 -845227
L-836896 -845283
L-836896 845423
L-836868 845367
L-836812 845339
L-836700 845339
L-836644 845367
L-836616 845423
L-836616 -845451
L-836896 -845395
" />
<path d="M-836419 845339
L-836306 -845199
L-836194 845451
L-836082 -845199
L-835969 845339
" />
<path d="M-835126 -844974
L-835155 -845002
L-835211 -845086
L-835239 -845142
L-835267 -845227
L-835295 -845367
L-835295 845451
L-835267 845311
L-835239 845227
L-835211 845171
L-835155 845086
L-835126 845058
" />
<path d="M-834930 845199
L-834902 845171
L-834846 845142
L-834705 845142
L-834649 845171
L-834621 845199
L-834593 845255
L-834593 845311
L-834621 845395
L-834958 -845199
L-834593 -845199
" />
<path d="M-834227 845142
L-834171 845142
L-834115 845171
L-834087 845199
L-834059 845255
L-834031 845367
L-834031 -845423
L-834059 -845311
L-834087 -845255
L-834115 -845227
L-834171 -845199
L-834227 -845199
L-834284 -845227
L-834312 -845255
L-834340 -845311
L-834368 -845423
L-834368 845367
L-834340 845255
L-834312 845199
L-834284 845171
L-834227 845142
" />
<path d="M-833469 -845199
L-833806 -845199
" />
<path d="M-833637 -845199
L-833637 845142
L-833694 845227
L-833750 845283
L-833806 845311
" />
<path d="M-833272 845142
L-832907 845142
L-833104 845367
L-833019 845367
L-832963 845395
L-832935 845423
L-832907 -845451
L-832907 -845311
L-832935 -845255
L-832963 -845227
L-833019 -845199
L-833188 -845199
L-833244 -845227
L-833272 -845255
" />
<path d="M-832654 -845423
L-832205 -845423
" />
<path d="M-831924 -845199
L-831924 845339
" />
<path d="M-831924 845395
L-831896 845367
L-831839 845339
L-831755 845339
L-831699 845367
L-831671 845423
L-831671 -845199
" />
<path d="M-831671 845423
L-831643 845367
L-831586 845339
L-831502 845339
L-831446 845367
L-831418 845423
L-831418 -845199
" />
<path d="M-830884 -845199
L-830884 845423
L-830912 845367
L-830968 845339
L-831081 845339
L-831137 845367
" />
<path d="M-830884 -845227
L-830940 -845199
L-831081 -845199
L-831137 -845227
L-831165 -845283
L-831165 -845339
L-831137 -845395
L-831081 -845423
L-830940 -845423
L-830884 -845451
" />
<path d="M-830603 -845199
L-830603 845339
" />
<path d="M-830603 845451
L-830575 845395
L-830547 845367
L-830491 845339
L-830435 845339
" />
<path d="M-830238 -845423
L-829788 -845423
" />
<path d="M-829198 -845199
L-829536 -845199
" />
<path d="M-829367 -845199
L-829367 845142
L-829423 845227
L-829479 845283
L-829536 845311
" />
<path d="M-829002 845142
L-828636 845142
L-828833 845367
L-828749 845367
L-828693 845395
L-828665 845423
L-828636 -845451
L-828636 -845311
L-828665 -845255
L-828693 -845227
L-828749 -845199
L-828917 -845199
L-828974 -845227
L-829002 -845255
" />
<path d="M-828440 -844974
L-828412 -845002
L-828356 -845086
L-828327 -845142
L-828299 -845227
L-828271 -845367
L-828271 845451
L-828299 845311
L-828327 845227
L-828356 845171
L-828412 845086
L-828440 845058
" />
<path d="M-827990 -845423
L-827541 -845423
" />
<path d="M-827344 845339
L-827119 845339
" />
<path d="M-827260 845142
L-827260 -845283
L-827232 -845227
L-827176 -845199
L-827119 -845199
" />
<path d="M-826698 -845227
L-826754 -845199
L-826866 -845199
L-826923 -845227
L-826951 -845283
L-826951 845423
L-826923 845367
L-826866 845339
L-826754 845339
L-826698 845367
L-826670 845423
L-826670 -845451
L-826951 -845395
" />
<path d="M-826445 -845227
L-826389 -845199
L-826276 -845199
L-826220 -845227
L-826192 -845283
L-826192 -845311
L-826220 -845367
L-826276 -845395
L-826361 -845395
L-826417 -845423
L-826445 845451
L-826445 845423
L-826417 845367
L-826361 845339
L-826276 845339
L-826220 845367
" />
<path d="M-826024 845339
L-825799 845339
" />
<path d="M-825939 845142
L-825939 -845283
L-825911 -845227
L-825855 -845199
L-825799 -845199
" />
<path d="M-825602 -845199
L-825602 845339
" />
<path d="M-825602 845142
L-825630 845171
L-825602 845199
L-825574 845171
L-825602 845142
L-825602 845199
" />
<path d="M-825321 845339
L-825321 -845199
" />
<path d="M-825321 845395
L-825293 845367
L-825237 845339
L-825153 845339
L-825096 845367
L-825068 845423
L-825068 -845199
" />
<path d="M-824535 845339
L-824535 -845114
L-824563 -845058
L-824591 -845030
L-824647 -845002
L-824731 -845002
L-824787 -845030
" />
<path d="M-824535 -845227
L-824591 -845199
L-824703 -845199
L-824759 -845227
L-824787 -845255
L-824816 -845311
L-824816 845451
L-824787 845395
L-824759 845367
L-824703 845339
L-824591 845339
L-824535 845367
" />
<path d="M-845325 -845199
L-845325 845142
L-845185 845142
L-845100 845171
L-845044 845227
L-845016 845283
L-844988 845395
L-844988 -845451
L-845016 -845339
L-845044 -845283
L-845100 -845227
L-845185 -845199
L-845325 -845199
" />
<path d="M-844482 -845199
L-844482 845423
L-844510 845367
L-844566 845339
L-844679 845339
L-844735 845367
" />
<path d="M-844482 -845227
L-844538 -845199
L-844679 -845199
L-844735 -845227
L-844763 -845283
L-844763 -845339
L-844735 -845395
L-844679 -845423
L-844538 -845423
L-844482 -845451
" />
<path d="M-844286 845339
L-844061 845339
" />
<path d="M-844201 845142
L-844201 -845283
L-844173 -845227
L-844117 -845199
L-844061 -845199
" />
<path d="M-843639 -845227
L-843696 -845199
L-843808 -845199
L-843864 -845227
L-843892 -845283
L-843892 845423
L-843864 845367
L-843808 845339
L-843696 845339
L-843639 845367
L-843611 845423
L-843611 -845451
L-843892 -845395
" />
<path d="M-843358 -845255
L-843330 -845227
L-843358 -845199
L-843386 -845227
L-843358 -845255
L-843358 -845199
" />
<path d="M-843358 845367
L-843330 845395
L-843358 845423
L-843386 845395
L-843358 845367
L-843358 845423
" />
<path d="M-842656 845199
L-842628 845171
L-842572 845142
L-842431 845142
L-842375 845171
L-842347 845199
L-842319 845255
L-842319 845311
L-842347 845395
L-842684 -845199
L-842319 -845199
" />
<path d="M-842122 845142
L-841757 845142
L-841954 845367
L-841869 845367
L-841813 845395
L-841785 845423
L-841757 -845451
L-841757 -845311
L-841785 -845255
L-841813 -845227
L-841869 -845199
L-842038 -845199
L-842094 -845227
L-842122 -845255
" />
<path d="M-840970 -845199
L-841026 -845227
L-841055 -845283
L-841055 845142
" />
<path d="M-840493 845339
L-840493 -845199
" />
<path d="M-840746 845339
L-840746 -845283
L-840717 -845227
L-840661 -845199
L-840577 -845199
L-840521 -845227
L-840493 -845255
" />
<path d="M-839959 845339
L-839959 -845114
L-839987 -845058
L-840015 -845030
L-840071 -845002
L-840156 -845002
L-840212 -845030
" />
<path d="M-839959 -845227
L-840015 -845199
L-840127 -845199
L-840184 -845227
L-840212 -845255
L-840240 -845311
L-840240 845451
L-840212 845395
L-840184 845367
L-840127 845339
L-840015 845339
L-839959 845367
" />
<path d="M-839256 845199
L-839228 845171
L-839172 845142
L-839032 845142
L-838976 845171
L-838947 845199
L-838919 845255
L-838919 845311
L-838947 845395
L-839285 -845199
L-838919 -845199
" />
<path d="M-838554 845142
L-838498 845142
L-838442 845171
L-838414 845199
L-838386 845255
L-838357 845367
L-838357 -845423
L-838386 -845311
L-838414 -845255
L-838442 -845227
L-838498 -845199
L-838554 -845199
L-838610 -845227
L-838638 -845255
L-838666 -845311
L-838695 -845423
L-838695 845367
L-838666 845255
L-838638 845199
L-838610 845171
L-838554 845142
" />
<path d="M-837796 -845199
L-838133 -845199
" />
<path d="M-837964 -845199
L-837964 845142
L-838020 845227
L-838076 845283
L-838133 845311
" />
<path d="M-837290 845339
L-837290 -845199
" />
<path d="M-837430 845114
L-837571 -845395
L-837206 -845395
" />
<path d="M-845466 -845466
L-845466 -845466
" />
<path d="M-845466 -845466
L-845466 -845466
" />
<path d="M-845466 -845466
L-845466 -845466
" />
</g>
<g style="fill:#008400; fill-opacity:0.0; 
stroke:#008400; stroke-width:98.4252; stroke-opacity:1; 
stroke-linecap:round; stroke-linejoin:round;">
<path d="M66434 45667
L66476 45704
L66593 45742
L66668 45742
L66776 45704
L66842 45629
L66870 45554
L66889 45404
L66875 45292
L66818 45142
L66771 45067
L66687 44992
L66570 44954
L66495 44954
L66387 44992
L66354 45029
" />
<path d="M65731 45742
L66106 45742
L66007 44954
" />
<path d="M65478 45517
L65103 45517
" />
<path d="M65581 45742
L65220 44954
L65056 45742
" />
<path d="M64695 44954
L64775 45592
L64747 45667
L64714 45704
L64644 45742
L64494 45742
L64414 45704
L64372 45667
L64325 45592
L64245 44954
" />
<path d="M63969 45742
L63870 44954
L63683 44954
L63575 44992
L63509 45067
L63481 45142
L63462 45292
L63477 45404
L63533 45554
L63580 45629
L63664 45704
L63781 45742
L63969 45742
" />
<path d="M62984 45367
L63031 45742
" />
<path d="M63195 44954
L62984 45367
L62670 44954
" />
<path d="M62408 44954
L62488 45592
L62459 45667
L62427 45704
L62356 45742
L62206 45742
L62127 45704
L62085 45667
L62038 45592
L61958 44954
" />
<path d="M61714 45704
L61606 45742
L61419 45742
L61339 45704
L61297 45667
L61250 45592
L61241 45517
L61269 45442
L61302 45404
L61372 45367
L61517 45329
L61588 45292
L61621 45254
L61649 45179
L61639 45104
L61592 45029
L61550 44992
L61471 44954
L61283 44954
L61175 44992
" />
<path d="M65061 46230
L65019 46192
L64939 46155
L64751 46155
L64681 46192
L64648 46230
L64620 46305
L64630 46380
L64681 46492
L65187 46942
L64700 46942
" />
<path d="M64114 46155
L64039 46155
L63969 46192
L63936 46230
L63908 46305
L63889 46455
L63912 46642
L63969 46792
L64016 46867
L64058 46905
L64137 46942
L64212 46942
L64283 46905
L64315 46867
L64344 46792
L64362 46642
L64339 46455
L64283 46305
L64236 46230
L64194 46192
L64114 46155
" />
<path d="M63200 46942
L63650 46942
" />
<path d="M63425 46942
L63327 46155
L63416 46267
L63500 46342
L63580 46380
" />
<path d="M62459 46417
L62525 46942
" />
<path d="M62609 46117
L62867 46680
L62380 46680
" />
<path d="M62078 49640
L62078 49453
L61684 49453
" />
<path d="M61871 49771
L61871 49903
" />
<path d="M62078 49959
L62078 49771
L61684 49771
L61684 49959
" />
<path d="M61703 50334
L61684 50296
L61684 50240
L61703 50184
L61740 50146
L61778 50128
L61853 50109
L61909 50109
L61984 50128
L62021 50146
L62059 50184
L62078 50240
L62078 50278
L62059 50334
L62040 50353
L61909 50353
L61909 50278
" />
<path d="M61684 50596
L61684 50671
L61703 50709
L61740 50746
L61815 50765
L61946 50765
L62021 50746
L62059 50709
L62078 50671
L62078 50596
L62059 50559
L62021 50521
L61946 50503
L61815 50503
L61740 50521
L61703 50559
L61684 50596
" />
<path d="M61965 41128
L61965 41315
" />
<path d="M62078 41090
L61684 41221
L62078 41353
" />
<path d="M62078 41671
L62078 41484
L61684 41484
" />
<path d="M62078 41803
L61684 41803
" />
<path d="M62078 41990
L61684 41990
L61965 42121
L61684 42253
L62078 42253
" />
<path d="M74159 38678
L74159 38284
" />
<path d="M73971 38678
L73971 38284
L73746 38678
L73746 38284
" />
<path d="M73559 38678
L73559 38284
L73465 38284
L73409 38303
L73371 38340
L73353 38378
L73334 38453
L73334 38509
L73353 38584
L73371 38621
L73409 38659
L73465 38678
L73559 38678
" />
<path d="M73165 38284
L73165 38603
L73146 38640
L73128 38659
L73090 38678
L73015 38678
L72978 38659
L72959 38640
L72940 38603
L72940 38284
" />
<path d="M72528 38640
L72546 38659
L72603 38678
L72640 38678
L72696 38659
L72734 38621
L72753 38584
L72771 38509
L72771 38453
L72753 38378
L72734 38340
L72696 38303
L72640 38284
L72603 38284
L72546 38303
L72528 38321
" />
<path d="M72415 38284
L72190 38284
" />
<path d="M72303 38678
L72303 38284
" />
<path d="M71984 38284
L71909 38284
L71871 38303
L71834 38340
L71815 38415
L71815 38546
L71834 38621
L71871 38659
L71909 38678
L71984 38678
L72021 38659
L72059 38621
L72078 38546
L72078 38415
L72059 38340
L72021 38303
L71984 38284
" />
<path d="M71422 38678
L71553 38490
" />
<path d="M71647 38678
L71647 38284
L71497 38284
L71459 38303
L71440 38321
L71422 38359
L71422 38415
L71440 38453
L71459 38471
L71497 38490
L71647 38490
" />
</g>
<g style="fill:#C2C200; fill-opacity:0.0; 
stroke:#C2C200; stroke-width:59.0551; stroke-opacity:1; 
stroke-linecap:round; stroke-linejoin:round;">
<path d="M61000 57000
L79000 57000
" />
<path d="M61000 36500
L61000 57000
" />
<path d="M79000 36500
L56500 36500
" />
<path d="M79000 57000
L79000 36500
" />
</g>
<g style="fill:#840000; fill-opacity:0.0; 
stroke:#840000; stroke-width:39.3701; stroke-opacity:1; 
stroke-linecap:round; stroke-linejoin:round;">
</g>
<g style="fill:#840000; fill-opacity:1.0; 
stroke:#840000; stroke-width:39.3701; stroke-opacity:1; 
stroke-linecap:round; stroke-linejoin:round;">
<circle cx="76354.3" cy="38692.9" r="964.567" /> 
<circle cx="76354.3" cy="42039.4" r="964.567" /> 
<circle cx="76354.3" cy="45385.8" r="964.567" /> 
<circle cx="76354.3" cy="48732.3" r="964.567" /> 
<circle cx="76354.3" cy="52078.7" r="964.567" /> 
<circle cx="76354.3" cy="55425.2" r="964.567" /> 
<circle cx="73007.9" cy="55425.2" r="964.567" /> 
<circle cx="69661.4" cy="55425.2" r="964.567" /> 
<circle cx="66315" cy="55425.2" r="964.567" /> 
<polyline style="fill-rule:evenodd;"
points="68244,50255
68244,49744
68755,49744
68755,50255
68244,50255
" /> 
<circle cx="65500" cy="50000" r="255.315" /> 
<polyline style="fill-rule:evenodd;"
points="65755,52744
65755,53255
65244,53255
65244,52744
65755,52744
" /> 
<circle cx="68500" cy="53000" r="255.315" /> 
<polyline style="fill-rule:evenodd;"
points="68244,51755
68244,51244
68755,51244
68755,51755
68244,51755
" /> 
<circle cx="65500" cy="51500" r="255.315" /> 
<polyline style="fill-rule:evenodd;"
points="65755,48244
65755,48755
65244,48755
65244,48244
65755,48244
" /> 
<circle cx="68500" cy="48500" r="255.315" /> 
<polyline style="fill-rule:evenodd;"
points="66255,39244
66255,39755
65744,39755
65744,39244
66255,39244
" /> 
<circle cx="69000" cy="39500" r="255.315" /> 
<polyline style="fill-rule:evenodd;"
points="68744,41255
68744,40744
69255,40744
69255,41255
68744,41255
" /> 
<circle cx="66000" cy="41000" r="255.315" /> 
<polyline style="fill-rule:evenodd;"
points="68744,44255
68744,43744
69255,43744
69255,44255
68744,44255
" /> 
<circle cx="66000" cy="44000" r="255.315" /> 
<polyline style="fill-rule:evenodd;"
points="66255,42244
66255,42755
65744,42755
65744,42244
66255,42244
" /> 
<circle cx="69000" cy="42500" r="255.315" /> 
<circle cx="73500" cy="43000" r="310.315" /> 
<circle cx="74500" cy="43000" r="310.315" /> 
<circle cx="63000" cy="48600" r="780.315" /> 
<circle cx="63000" cy="52000" r="780.315" /> 
<polyline style="fill-rule:evenodd;"
points="63580,43280
62619,43280
62619,42319
63580,42319
63580,43280
" /> 
<circle cx="63100" cy="40800" r="480.315" /> 
<circle cx="71500" cy="40000" r="780.315" /> 
<circle cx="74400" cy="39900" r="780.315" /> 
<polyline style="fill-rule:evenodd;"
points="71755,43755
71244,43755
71244,43244
71755,43244
71755,43755
" /> 
<circle cx="71500" cy="44500" r="255.315" /> 
<circle cx="72500" cy="44500" r="255.315" /> 
</g>
<g style="fill:#008400; fill-opacity:1.0; 
stroke:#008400; stroke-width:39.3701; stroke-opacity:1; 
stroke-linecap:round; stroke-linejoin:round;">
<polyline style="fill-rule:evenodd;"
points="69594,50205
69594,49794
69805,49794
69805,50205
69594,50205
" /> 
<polyline style="fill-rule:evenodd;"
points="70194,50205
70194,49794
70405,49794
70405,50205
70194,50205
" /> 
<polyline style="fill-rule:evenodd;"
points="68431,46641
68141,46931
67992,46782
68282,46492
68431,46641
" /> 
<polyline style="fill-rule:evenodd;"
points="68007,46217
67717,46507
67568,46358
67858,46068
68007,46217
" /> 
<polyline style="fill-rule:evenodd;"
points="72405,41794
72405,42205
72194,42205
72194,41794
72405,41794
" /> 
<polyline style="fill-rule:evenodd;"
points="71805,41794
71805,42205
71594,42205
71594,41794
71805,41794
" /> 
</g>
<g style="fill:#840000; fill-opacity:1.0; 
stroke:#840000; stroke-width:39.3701; stroke-opacity:1; 
stroke-linecap:round; stroke-linejoin:round;">
<polyline style="fill-rule:evenodd;"
points="71209,50430
71209,49569
71790,49569
71790,50430
71209,50430
" /> 
</g>
<g style="fill:#840000; fill-opacity:1.0; 
stroke:#840000; stroke-width:620; stroke-opacity:1; 
stroke-linecap:round; stroke-linejoin:round;">
<path d="M72500 49860
L72500 50140
" />
<path d="M73500 49860
L73500 50140
" />
<path d="M73500 46860
L73500 47140
" />
<path d="M72500 46860
L72500 47140
" />
<path d="M71500 46860
L71500 47140
" />
</g>
<g style="fill:#840000; fill-opacity:1.0; 
stroke:#840000; stroke-width:39.3701; stroke-opacity:1; 
stroke-linecap:round; stroke-linejoin:round;">
<circle cx="62968.5" cy="55425.2" r="964.567" /> 
</g>
<g style="fill:#008400; fill-opacity:1.0; 
stroke:#008400; stroke-width:177.165; stroke-opacity:1; 
stroke-linecap:round; stroke-linejoin:round;">
<path d="M71500 43500
L69000 43500
" />
<path d="M69070 43417
L69000 43417
" />
<path d="M69070 43429
L69070 43417
" />
<path d="M69000 43500
L69070 43429
" />
<path d="M69000 42500
L69000 43417
" />
<path d="M69000 43417
L69000 44000
" />
<path d="M71500 47000
L68500 47000
" />
<path d="M68500 47000
L68212 46712
" />
<path d="M72500 47000
L72500 47830
" />
<path d="M74582 43082
L74500 43000
" />
<path d="M74582 47354
L74582 43082
" />
<path d="M73795 48141
L74582 47354
" />
<path d="M72811 48141
L73795 48141
" />
<path d="M72500 47830
L72811 48141
" />
<path d="M74500 43000
L74500 40000
" />
<path d="M74500 40000
L74400 39900
" />
<path d="M72500 44500
L73000 44500
" />
<path d="M72500 47000
L72500 44500
" />
<path d="M71700 42000
L70606 42000
" />
<path d="M70606 42000
L70251 41645
" />
<path d="M67299 41645
L70251 41645
" />
<path d="M71500 40397
L71500 40000
" />
<path d="M70251 41645
L71500 40397
" />
<path d="M66000 41000
L66000 39500
" />
<path d="M66000 41000
L66653 41000
" />
<path d="M67496 45996
L67787 46287
" />
<path d="M67496 41842
L67496 45996
" />
<path d="M66653 41000
L67299 41645
" />
<path d="M67299 41645
L67496 41842
" />
<path d="M68500 50000
L68500 48500
" />
<path d="M68500 50000
L69700 50000
" />
<path d="M68500 52275
L71433 52275
" />
<path d="M72500 51208
L72500 50000
" />
<path d="M71433 52275
L72500 51208
" />
<path d="M68500 53000
L68500 52275
" />
<path d="M68500 52275
L68500 51500
" />
<path d="M70300 50000
L71500 50000
" />
<path d="M65500 48500
L65500 50000
" />
<path d="M63000 48600
L65400 48600
" />
<path d="M65400 48600
L65500 48500
" />
<path d="M65500 53000
L65500 51500
" />
<path d="M63000 52000
L65000 52000
" />
<path d="M65000 52000
L65500 51500
" />
<path d="M66000 44000
L66000 42500
" />
<path d="M63100 42800
L65700 42800
" />
<path d="M65700 42800
L66000 42500
" />
<path d="M73500 43000
L73500 42531
" />
<path d="M72968 42000
L72300 42000
" />
<path d="M73500 42531
L72968 42000
" />
<path d="M72417 43614
L72811 43614
" />
<path d="M71531 44500
L72417 43614
" />
<path d="M71500 44500
L71531 44500
" />
<path d="M73598 46901
L73500 47000
" />
<path d="M73598 44401
L73598 46901
" />
<path d="M72811 43614
L73598 44401
" />
<path d="M63100 40800
L63100 39151
" />
<path d="M69000 38622
L69000 41000
" />
<path d="M68480 38102
L69000 38622
" />
<path d="M64149 38102
L68480 38102
" />
<path d="M63100 39151
L64149 38102
" />
</g>
<g style="fill:#FFFFFF; fill-opacity:1.0; 
stroke:#FFFFFF; stroke-width:39.3701; stroke-opacity:1; 
stroke-linecap:round; stroke-linejoin:round;">
<circle cx="76354.3" cy="38692.9" r="39.3701" /> 
<circle cx="76354.3" cy="42039.4" r="39.3701" /> 
<circle cx="76354.3" cy="45385.8" r="39.3701" /> 
<circle cx="76354.3" cy="48732.3" r="39.3701" /> 
<circle cx="76354.3" cy="52078.7" r="39.3701" /> 
<circle cx="76354.3" cy="55425.2" r="39.3701" /> 
<circle cx="73007.9" cy="55425.2" r="39.3701" /> 
<circle cx="69661.4" cy="55425.2" r="39.3701" /> 
<circle cx="66315" cy="55425.2" r="39.3701" /> 
<circle cx="68500" cy="50000" r="140.315" /> 
<circle cx="65500" cy="50000" r="140.315" /> 
<circle cx="65500" cy="53000" r="140.315" /> 
<circle cx="68500" cy="53000" r="140.315" /> 
<circle cx="68500" cy="51500" r="140.315" /> 
<circle cx="65500" cy="51500" r="140.315" /> 
<circle cx="65500" cy="48500" r="140.315" /> 
<circle cx="68500" cy="48500" r="140.315" /> 
<circle cx="66000" cy="39500" r="140.315" /> 
<circle cx="69000" cy="39500" r="140.315" /> 
<circle cx="69000" cy="41000" r="140.315" /> 
<circle cx="66000" cy="41000" r="140.315" /> 
<circle cx="69000" cy="44000" r="140.315" /> 
<circle cx="66000" cy="44000" r="140.315" /> 
<circle cx="66000" cy="42500" r="140.315" /> 
<circle cx="69000" cy="42500" r="140.315" /> 
<circle cx="73500" cy="43000" r="140.315" /> 
<circle cx="74500" cy="43000" r="140.315" /> 
<circle cx="63000" cy="48600" r="78.7402" /> 
<circle cx="63000" cy="52000" r="78.7402" /> 
<circle cx="63100" cy="42800" r="280.315" /> 
<circle cx="63100" cy="40800" r="280.315" /> 
<circle cx="71500" cy="40000" r="78.7402" /> 
<circle cx="74400" cy="39900" r="78.7402" /> 
<circle cx="71500" cy="43500" r="140.315" /> 
<circle cx="71500" cy="44500" r="140.315" /> 
<circle cx="72500" cy="44500" r="140.315" /> 
<circle cx="71500" cy="50000" r="140.315" /> 
<circle cx="72500" cy="50000" r="140.315" /> 
<circle cx="73500" cy="50000" r="140.315" /> 
<circle cx="73500" cy="47000" r="140.315" /> 
<circle cx="72500" cy="47000" r="140.315" /> 
<circle cx="71500" cy="47000" r="140.315" /> 
<circle cx="62968.5" cy="55425.2" r="39.3701" /> 
</g> 
</svg>
