<?xml version="1.0" standalone="no"?>
 <!DOCTYPE svg PUBLIC "-//W3C//DTD SVG 1.1//EN" 
 "http://www.w3.org/Graphics/SVG/1.1/DTD/svg11.dtd"> 
<svg xmlns="http://www.w3.org/2000/svg" version="1.1" 
    width="29.7002cm" height="21.0007cm" viewBox="0 0 116930 82680 ">
<title>SVG Picture created as lego-mag-F_SilkS.svg date 2014/07/26 10:40:58 </title>
  <desc>Picture generated by PCBNEW </desc>
<g style="fill:#000000; fill-opacity:1;stroke:#000000; stroke-opacity:1;
stroke-linecap:round; stroke-linejoin:round; "
 transform="translate(0 0) scale(1 1)">
</g>
<g style="fill:#000000; fill-opacity:0.0; 
stroke:#000000; stroke-width:19.685; stroke-opacity:1; 
stroke-linecap:round; stroke-linejoin:round;">
<rect x="-845466" y="-845466" width="0" height="0" rx="0" />
<rect x="-845466" y="-845466" width="0" height="0" rx="0" />
<path d="M-845466 -845466
L-845466 -845466
" />
<path d="M-845466 -845466
L-845466 -845466
" />
<path d="M-845466 -845466
L-845466 -845466
" />
<path d="M-845466 -845466
L-845466 -845466
" />
<path d="M-845466 -845466
L-845466 -845466
" />
</g>
<g style="fill:#000000; fill-opacity:0.0; 
stroke:#000000; stroke-width:118; stroke-opacity:1; 
stroke-linecap:round; stroke-linejoin:round;">
<path d="M-844988 -845255
L-845016 -845227
L-845100 -845199
L-845156 -845199
L-845241 -845227
L-845297 -845283
L-845325 -845339
L-845353 -845451
L-845353 845395
L-845325 845283
L-845297 845227
L-845241 845171
L-845156 845142
L-845100 845142
L-845016 845171
L-844988 845199
" />
<path d="M-844651 -845199
L-844707 -845227
L-844735 -845283
L-844735 845142
" />
<path d="M-844173 -845199
L-844173 845423
L-844201 845367
L-844257 845339
L-844370 845339
L-844426 845367
" />
<path d="M-844173 -845227
L-844229 -845199
L-844370 -845199
L-844426 -845227
L-844454 -845283
L-844454 -845339
L-844426 -845395
L-844370 -845423
L-844229 -845423
L-844173 -845451
" />
<path d="M-843639 845339
L-843639 -845199
" />
<path d="M-843892 845339
L-843892 -845283
L-843864 -845227
L-843808 -845199
L-843724 -845199
L-843667 -845227
L-843639 -845255
" />
<path d="M-843106 -845199
L-843106 845142
" />
<path d="M-843106 -845227
L-843162 -845199
L-843274 -845199
L-843330 -845227
L-843358 -845255
L-843386 -845311
L-843386 845451
L-843358 845395
L-843330 845367
L-843274 845339
L-843162 845339
L-843106 845367
" />
<path d="M-842825 -845199
L-842825 845339
" />
<path d="M-842825 845142
L-842853 845171
L-842825 845199
L-842796 845171
L-842825 845142
L-842825 845199
" />
<path d="M-842459 -845199
L-842516 -845227
L-842544 -845255
L-842572 -845311
L-842572 845451
L-842544 845395
L-842516 845367
L-842459 845339
L-842375 845339
L-842319 845367
L-842291 845395
L-842263 845451
L-842263 -845311
L-842291 -845255
L-842319 -845227
L-842375 -845199
L-842459 -845199
" />
<path d="M-841560 -845199
L-841560 845142
L-841364 -845367
L-841167 845142
L-841167 -845199
" />
<path d="M-840886 -845199
L-840886 845339
" />
<path d="M-840886 845142
L-840914 845171
L-840886 845199
L-840858 845171
L-840886 845142
L-840886 845199
" />
<path d="M-840352 845339
L-840352 -845114
L-840380 -845058
L-840408 -845030
L-840465 -845002
L-840549 -845002
L-840605 -845030
" />
<path d="M-840352 -845227
L-840408 -845199
L-840521 -845199
L-840577 -845227
L-840605 -845255
L-840633 -845311
L-840633 845451
L-840605 845395
L-840577 845367
L-840521 845339
L-840408 845339
L-840352 845367
" />
<path d="M-840071 845339
L-840071 -845199
" />
<path d="M-840071 845395
L-840043 845367
L-839987 845339
L-839903 845339
L-839846 845367
L-839818 845423
L-839818 -845199
" />
<path d="M-839285 -845199
L-839285 845423
L-839313 845367
L-839369 845339
L-839481 845339
L-839537 845367
" />
<path d="M-839285 -845227
L-839341 -845199
L-839481 -845199
L-839537 -845227
L-839566 -845283
L-839566 -845339
L-839537 -845395
L-839481 -845423
L-839341 -845423
L-839285 -845451
" />
<path d="M-839004 845339
L-839004 -845199
" />
<path d="M-839004 845395
L-838976 845367
L-838919 845339
L-838835 845339
L-838779 845367
L-838751 845423
L-838751 -845199
" />
<path d="M-838554 845339
L-838329 845339
" />
<path d="M-838470 845142
L-838470 -845283
L-838442 -845227
L-838386 -845199
L-838329 -845199
" />
<path d="M-838133 -845199
L-838133 845339
" />
<path d="M-838133 845142
L-838161 845171
L-838133 845199
L-838105 845171
L-838133 845142
L-838133 845199
" />
</g>
<g style="fill:#000000; fill-opacity:0.0; 
stroke:#000000; stroke-width:19.685; stroke-opacity:1; 
stroke-linecap:round; stroke-linejoin:round;">
<path d="M-845353 -845227
L-845269 -845199
L-845128 -845199
L-845072 -845227
L-845044 -845255
L-845016 -845311
L-845016 -845367
L-845044 -845423
L-845072 -845451
L-845128 845451
L-845241 845423
L-845297 845395
L-845325 845367
L-845353 845311
L-845353 845255
L-845325 845199
L-845297 845171
L-845241 845142
L-845100 845142
L-845016 845171
" />
<path d="M-844763 -845199
L-844763 845142
" />
<path d="M-844510 -845199
L-844510 845423
L-844538 845367
L-844595 845339
L-844679 845339
L-844735 845367
L-844763 845395
" />
<path d="M-844005 -845227
L-844061 -845199
L-844173 -845199
L-844229 -845227
L-844257 -845283
L-844257 845423
L-844229 845367
L-844173 845339
L-844061 845339
L-844005 845367
L-843976 845423
L-843976 -845451
L-844257 -845395
" />
<path d="M-843499 -845227
L-843555 -845199
L-843667 -845199
L-843724 -845227
L-843752 -845283
L-843752 845423
L-843724 845367
L-843667 845339
L-843555 845339
L-843499 845367
L-843471 845423
L-843471 -845451
L-843752 -845395
" />
<path d="M-843302 845339
L-843077 845339
" />
<path d="M-843218 845142
L-843218 -845283
L-843190 -845227
L-843134 -845199
L-843077 -845199
" />
<path d="M-842881 -845255
L-842853 -845227
L-842881 -845199
L-842909 -845227
L-842881 -845255
L-842881 -845199
" />
<path d="M-842881 845367
L-842853 845395
L-842881 845423
L-842909 845395
L-842881 845367
L-842881 845423
" />
<path d="M-841729 845114
L-842235 -845058
" />
<path d="M-841532 -845199
L-841532 845142
" />
<path d="M-841279 -845199
L-841279 845423
L-841307 845367
L-841364 845339
L-841448 845339
L-841504 845367
L-841532 845395
" />
<path d="M-840914 -845199
L-840970 -845227
L-840998 -845255
L-841026 -845311
L-841026 845451
L-840998 845395
L-840970 845367
L-840914 845339
L-840830 845339
L-840774 845367
L-840746 845395
L-840717 845451
L-840717 -845311
L-840746 -845255
L-840774 -845227
L-840830 -845199
L-840914 -845199
" />
<path d="M-840465 -845199
L-840465 845339
" />
<path d="M-840465 845395
L-840436 845367
L-840380 845339
L-840296 845339
L-840240 845367
L-840212 845423
L-840212 -845199
" />
<path d="M-840212 845423
L-840184 845367
L-840127 845339
L-840043 845339
L-839987 845367
L-839959 845423
L-839959 -845199
" />
<path d="M-839453 -845227
L-839509 -845199
L-839622 -845199
L-839678 -845227
L-839706 -845283
L-839706 845423
L-839678 845367
L-839622 845339
L-839509 845339
L-839453 845367
L-839425 845423
L-839425 -845451
L-839706 -845395
" />
<path d="M-838751 845114
L-839256 -845058
" />
<path d="M-838301 -845227
L-838357 -845199
L-838470 -845199
L-838526 -845227
L-838554 -845255
L-838582 -845311
L-838582 845451
L-838554 845395
L-838526 845367
L-838470 845339
L-838357 845339
L-838301 845367
" />
<path d="M-837964 -845199
L-838020 -845227
L-838048 -845283
L-838048 845142
" />
<path d="M-837486 -845199
L-837486 845423
L-837515 845367
L-837571 845339
L-837683 845339
L-837739 845367
" />
<path d="M-837486 -845227
L-837543 -845199
L-837683 -845199
L-837739 -845227
L-837767 -845283
L-837767 -845339
L-837739 -845395
L-837683 -845423
L-837543 -845423
L-837486 -845451
" />
<path d="M-836953 845339
L-836953 -845199
" />
<path d="M-837206 845339
L-837206 -845283
L-837177 -845227
L-837121 -845199
L-837037 -845199
L-836981 -845227
L-836953 -845255
" />
<path d="M-836419 -845199
L-836419 845142
" />
<path d="M-836419 -845227
L-836475 -845199
L-836587 -845199
L-836644 -845227
L-836672 -845255
L-836700 -845311
L-836700 845451
L-836672 845395
L-836644 845367
L-836587 845339
L-836475 845339
L-836419 845367
" />
<path d="M-836194 845339
L-836054 -845199
" />
<path d="M-835913 845339
L-836054 -845199
L-836110 -845058
L-836138 -845030
L-836194 -845002
" />
<path d="M-835436 845339
L-835436 -845199
" />
<path d="M-835688 845339
L-835688 -845283
L-835660 -845227
L-835604 -845199
L-835520 -845199
L-835464 -845227
L-835436 -845255
" />
<path d="M-835183 -845227
L-835126 -845199
L-835014 -845199
L-834958 -845227
L-834930 -845283
L-834930 -845311
L-834958 -845367
L-835014 -845395
L-835098 -845395
L-835155 -845423
L-835183 845451
L-835183 845423
L-835155 845367
L-835098 845339
L-835014 845339
L-834958 845367
" />
<path d="M-834256 845114
L-834761 -845058
" />
<path d="M-834059 -845199
L-834059 845142
L-833918 845142
L-833834 845171
L-833778 845227
L-833750 845283
L-833722 845395
L-833722 -845451
L-833750 -845339
L-833778 -845283
L-833834 -845227
L-833918 -845199
L-834059 -845199
" />
<path d="M-833469 -845199
L-833469 845339
" />
<path d="M-833469 845451
L-833441 845395
L-833413 845367
L-833356 845339
L-833300 845339
" />
<path d="M-833019 -845199
L-833076 -845227
L-833104 -845255
L-833132 -845311
L-833132 845451
L-833104 845395
L-833076 845367
L-833019 845339
L-832935 845339
L-832879 845367
L-832851 845395
L-832823 845451
L-832823 -845311
L-832851 -845255
L-832879 -845227
L-832935 -845199
L-833019 -845199
" />
<path d="M-832570 845339
L-832570 -845002
" />
<path d="M-832570 845367
L-832514 845339
L-832401 845339
L-832345 845367
L-832317 845395
L-832289 845451
L-832289 -845311
L-832317 -845255
L-832345 -845227
L-832401 -845199
L-832514 -845199
L-832570 -845227
" />
<path d="M-832036 -845199
L-832036 845142
" />
<path d="M-832036 845367
L-831980 845339
L-831867 845339
L-831811 845367
L-831783 845395
L-831755 845451
L-831755 -845311
L-831783 -845255
L-831811 -845227
L-831867 -845199
L-831980 -845199
L-832036 -845227
" />
<path d="M-831418 -845199
L-831474 -845227
L-831502 -845255
L-831530 -845311
L-831530 845451
L-831502 845395
L-831474 845367
L-831418 845339
L-831334 845339
L-831277 845367
L-831249 845395
L-831221 845451
L-831221 -845311
L-831249 -845255
L-831277 -845227
L-831334 -845199
L-831418 -845199
" />
<path d="M-831025 -845199
L-830716 845339
" />
<path d="M-831025 845339
L-830716 -845199
" />
<path d="M-830069 845114
L-830575 -845058
" />
<path d="M-829873 -845199
L-829873 845142
" />
<path d="M-829816 -845423
L-829648 -845199
" />
<path d="M-829648 845339
L-829873 -845367
" />
<path d="M-829395 -845199
L-829395 845339
" />
<path d="M-829395 845142
L-829423 845171
L-829395 845199
L-829367 845171
L-829395 845142
L-829395 845199
" />
<path d="M-828861 -845227
L-828917 -845199
L-829030 -845199
L-829086 -845227
L-829114 -845255
L-829142 -845311
L-829142 845451
L-829114 845395
L-829086 845367
L-829030 845339
L-828917 845339
L-828861 845367
" />
<path d="M-828356 -845199
L-828356 845423
L-828384 845367
L-828440 845339
L-828552 845339
L-828608 845367
" />
<path d="M-828356 -845227
L-828412 -845199
L-828552 -845199
L-828608 -845227
L-828636 -845283
L-828636 -845339
L-828608 -845395
L-828552 -845423
L-828412 -845423
L-828356 -845451
" />
<path d="M-827822 -845199
L-827822 845142
" />
<path d="M-827822 -845227
L-827878 -845199
L-827990 -845199
L-828046 -845227
L-828075 -845255
L-828103 -845311
L-828103 845451
L-828075 845395
L-828046 845367
L-827990 845339
L-827878 845339
L-827822 845367
" />
<path d="M-827119 845114
L-827625 -845058
" />
<path d="M-826838 -845199
L-826895 -845227
L-826923 -845283
L-826923 845142
" />
<path d="M-826389 -845227
L-826445 -845199
L-826557 -845199
L-826614 -845227
L-826642 -845283
L-826642 845423
L-826614 845367
L-826557 845339
L-826445 845339
L-826389 845367
L-826361 845423
L-826361 -845451
L-826642 -845395
" />
<path d="M-825855 845339
L-825855 -845114
L-825883 -845058
L-825911 -845030
L-825967 -845002
L-826052 -845002
L-826108 -845030
" />
<path d="M-825855 -845227
L-825911 -845199
L-826024 -845199
L-826080 -845227
L-826108 -845255
L-826136 -845311
L-826136 845451
L-826108 845395
L-826080 845367
L-826024 845339
L-825911 845339
L-825855 845367
" />
<path d="M-825490 -845199
L-825546 -845227
L-825574 -845255
L-825602 -845311
L-825602 845451
L-825574 845395
L-825546 845367
L-825490 845339
L-825406 845339
L-825349 845367
L-825321 845395
L-825293 845451
L-825293 -845311
L-825321 -845255
L-825349 -845227
L-825406 -845199
L-825490 -845199
" />
<path d="M-825040 -845423
L-824591 -845423
" />
<path d="M-824310 -845199
L-824310 845339
" />
<path d="M-824310 845395
L-824282 845367
L-824226 845339
L-824141 845339
L-824085 845367
L-824057 845423
L-824057 -845199
" />
<path d="M-824057 845423
L-824029 845367
L-823973 845339
L-823888 845339
L-823832 845367
L-823804 845423
L-823804 -845199
" />
<path d="M-823270 -845199
L-823270 845423
L-823298 845367
L-823355 845339
L-823467 845339
L-823523 845367
" />
<path d="M-823270 -845227
L-823326 -845199
L-823467 -845199
L-823523 -845227
L-823551 -845283
L-823551 -845339
L-823523 -845395
L-823467 -845423
L-823326 -845423
L-823270 -845451
" />
<path d="M-822736 845339
L-822736 -845114
L-822765 -845058
L-822793 -845030
L-822849 -845002
L-822933 -845002
L-822989 -845030
" />
<path d="M-822736 -845227
L-822793 -845199
L-822905 -845199
L-822961 -845227
L-822989 -845255
L-823017 -845311
L-823017 845451
L-822989 845395
L-822961 845367
L-822905 845339
L-822793 845339
L-822736 845367
" />
<path d="M-822034 845114
L-822540 -845058
" />
<path d="M-821753 -845199
L-821809 -845227
L-821837 -845283
L-821837 845142
" />
<path d="M-821304 -845227
L-821360 -845199
L-821472 -845199
L-821528 -845227
L-821556 -845283
L-821556 845423
L-821528 845367
L-821472 845339
L-821360 845339
L-821304 845367
L-821276 845423
L-821276 -845451
L-821556 -845395
" />
<path d="M-820770 845339
L-820770 -845114
L-820798 -845058
L-820826 -845030
L-820882 -845002
L-820966 -845002
L-821023 -845030
" />
<path d="M-820770 -845227
L-820826 -845199
L-820938 -845199
L-820995 -845227
L-821023 -845255
L-821051 -845311
L-821051 845451
L-821023 845395
L-820995 845367
L-820938 845339
L-820826 845339
L-820770 845367
" />
<path d="M-820405 -845199
L-820461 -845227
L-820489 -845255
L-820517 -845311
L-820517 845451
L-820489 845395
L-820461 845367
L-820405 845339
L-820320 845339
L-820264 845367
L-820236 845395
L-820208 845451
L-820208 -845311
L-820236 -845255
L-820264 -845227
L-820320 -845199
L-820405 -845199
" />
<path d="M-819955 -845423
L-819506 -845423
" />
<path d="M-819225 -845199
L-819225 845339
" />
<path d="M-819225 845395
L-819196 845367
L-819140 845339
L-819056 845339
L-819000 845367
L-818972 845423
L-818972 -845199
" />
<path d="M-818972 845423
L-818944 845367
L-818887 845339
L-818803 845339
L-818747 845367
L-818719 845423
L-818719 -845199
" />
<path d="M-818185 -845199
L-818185 845423
L-818213 845367
L-818269 845339
L-818382 845339
L-818438 845367
" />
<path d="M-818185 -845227
L-818241 -845199
L-818382 -845199
L-818438 -845227
L-818466 -845283
L-818466 -845339
L-818438 -845395
L-818382 -845423
L-818241 -845423
L-818185 -845451
" />
<path d="M-817651 845339
L-817651 -845114
L-817679 -845058
L-817707 -845030
L-817764 -845002
L-817848 -845002
L-817904 -845030
" />
<path d="M-817651 -845227
L-817707 -845199
L-817820 -845199
L-817876 -845227
L-817904 -845255
L-817932 -845311
L-817932 845451
L-817904 845395
L-817876 845367
L-817820 845339
L-817707 845339
L-817651 845367
" />
<path d="M-817370 -845255
L-817342 -845227
L-817370 -845199
L-817398 -845227
L-817370 -845255
L-817370 -845199
" />
<path d="M-817089 -845199
L-817089 845142
" />
<path d="M-817033 -845423
L-816865 -845199
" />
<path d="M-816865 845339
L-817089 -845367
" />
<path d="M-816612 -845199
L-816612 845339
" />
<path d="M-816612 845142
L-816640 845171
L-816612 845199
L-816584 845171
L-816612 845142
L-816612 845199
" />
<path d="M-816078 -845227
L-816134 -845199
L-816246 -845199
L-816303 -845227
L-816331 -845255
L-816359 -845311
L-816359 845451
L-816331 845395
L-816303 845367
L-816246 845339
L-816134 845339
L-816078 845367
" />
<path d="M-815572 -845199
L-815572 845423
L-815600 845367
L-815656 845339
L-815769 845339
L-815825 845367
" />
<path d="M-815572 -845227
L-815628 -845199
L-815769 -845199
L-815825 -845227
L-815853 -845283
L-815853 -845339
L-815825 -845395
L-815769 -845423
L-815628 -845423
L-815572 -845451
" />
<path d="M-815038 -845199
L-815038 845142
" />
<path d="M-815038 -845227
L-815095 -845199
L-815207 -845199
L-815263 -845227
L-815291 -845255
L-815319 -845311
L-815319 845451
L-815291 845395
L-815263 845367
L-815207 845339
L-815095 845339
L-815038 845367
" />
<path d="M-814898 -845142
L-814448 -845142
" />
<path d="M-814308 845339
L-814308 -845002
" />
<path d="M-814308 845367
L-814252 845339
L-814139 845339
L-814083 845367
L-814055 845395
L-814027 845451
L-814027 -845311
L-814055 -845255
L-814083 -845227
L-814139 -845199
L-814252 -845199
L-814308 -845227
" />
<path d="M-813521 -845227
L-813577 -845199
L-813690 -845199
L-813746 -845227
L-813774 -845255
L-813802 -845311
L-813802 845451
L-813774 845395
L-813746 845367
L-813690 845339
L-813577 845339
L-813521 845367
" />
<path d="M-813268 -845199
L-813268 845142
" />
<path d="M-813268 845367
L-813212 845339
L-813100 845339
L-813044 845367
L-813016 845395
L-812987 845451
L-812987 -845311
L-813016 -845255
L-813044 -845227
L-813100 -845199
L-813212 -845199
L-813268 -845227
" />
<path d="M-845128 845423
L-845325 845423
" />
<path d="M-845325 -845199
L-845325 845142
L-845044 845142
" />
<path d="M-844819 -845199
L-844819 845339
" />
<path d="M-844819 845142
L-844847 845171
L-844819 845199
L-844791 845171
L-844819 845142
L-844819 845199
" />
<path d="M-844454 -845199
L-844510 -845227
L-844538 -845283
L-844538 845142
" />
<path d="M-844005 -845227
L-844061 -845199
L-844173 -845199
L-844229 -845227
L-844257 -845283
L-844257 845423
L-844229 845367
L-844173 845339
L-844061 845339
L-844005 845367
L-843976 845423
L-843976 -845451
L-844257 -845395
" />
<path d="M-843724 -845255
L-843696 -845227
L-843724 -845199
L-843752 -845227
L-843724 -845255
L-843724 -845199
" />
<path d="M-843724 845367
L-843696 845395
L-843724 845423
L-843752 845395
L-843724 845367
L-843724 845423
" />
</g>
<g style="fill:#000000; fill-opacity:0.0; 
stroke:#000000; stroke-width:118; stroke-opacity:1; 
stroke-linecap:round; stroke-linejoin:round;">
<path d="M-845409 845142
L-845072 845142
" />
<path d="M-845241 -845199
L-845241 845142
" />
<path d="M-844876 -845199
L-844876 845339
" />
<path d="M-844876 845142
L-844904 845171
L-844876 845199
L-844847 845171
L-844876 845142
L-844876 845199
" />
<path d="M-844679 845339
L-844454 845339
" />
<path d="M-844595 845142
L-844595 -845283
L-844566 -845227
L-844510 -845199
L-844454 -845199
" />
<path d="M-844173 -845199
L-844229 -845227
L-844257 -845283
L-844257 845142
" />
<path d="M-843724 -845227
L-843780 -845199
L-843892 -845199
L-843948 -845227
L-843976 -845283
L-843976 845423
L-843948 845367
L-843892 845339
L-843780 845339
L-843724 845367
L-843696 845423
L-843696 -845451
L-843976 -845395
" />
<path d="M-843443 -845255
L-843415 -845227
L-843443 -845199
L-843471 -845227
L-843443 -845255
L-843443 -845199
" />
<path d="M-843443 845367
L-843415 845395
L-843443 845423
L-843471 845395
L-843443 845367
L-843443 845423
" />
<path d="M-842431 -845199
L-842712 -845199
L-842712 845142
" />
<path d="M-842010 -845227
L-842066 -845199
L-842178 -845199
L-842235 -845227
L-842263 -845283
L-842263 845423
L-842235 845367
L-842178 845339
L-842066 845339
L-842010 845367
L-841982 845423
L-841982 -845451
L-842263 -845395
" />
<path d="M-841476 845339
L-841476 -845114
L-841504 -845058
L-841532 -845030
L-841588 -845002
L-841673 -845002
L-841729 -845030
" />
<path d="M-841476 -845227
L-841532 -845199
L-841645 -845199
L-841701 -845227
L-841729 -845255
L-841757 -845311
L-841757 845451
L-841729 845395
L-841701 845367
L-841645 845339
L-841532 845339
L-841476 845367
" />
<path d="M-841111 -845199
L-841167 -845227
L-841195 -845255
L-841223 -845311
L-841223 845451
L-841195 845395
L-841167 845367
L-841111 845339
L-841026 845339
L-840970 845367
L-840942 845395
L-840914 845451
L-840914 -845311
L-840942 -845255
L-840970 -845227
L-841026 -845199
L-841111 -845199
" />
<path d="M-840212 -845199
L-840212 845142
L-840015 -845367
L-839818 845142
L-839818 -845199
" />
<path d="M-839285 -845199
L-839285 845423
L-839313 845367
L-839369 845339
L-839481 845339
L-839537 845367
" />
<path d="M-839285 -845227
L-839341 -845199
L-839481 -845199
L-839537 -845227
L-839566 -845283
L-839566 -845339
L-839537 -845395
L-839481 -845423
L-839341 -845423
L-839285 -845451
" />
<path d="M-838751 845339
L-838751 -845114
L-838779 -845058
L-838807 -845030
L-838863 -845002
L-838947 -845002
L-839004 -845030
" />
<path d="M-838751 -845227
L-838807 -845199
L-838919 -845199
L-838976 -845227
L-839004 -845255
L-839032 -845311
L-839032 845451
L-839004 845395
L-838976 845367
L-838919 845339
L-838807 845339
L-838751 845367
" />
</g>
<g style="fill:#000000; fill-opacity:0.0; 
stroke:#000000; stroke-width:19.685; stroke-opacity:1; 
stroke-linecap:round; stroke-linejoin:round;">
<path d="M-845325 -845199
L-845325 845142
" />
<path d="M-844791 -845199
L-844791 845142
" />
<path d="M-844791 -845227
L-844847 -845199
L-844960 -845199
L-845016 -845227
L-845044 -845255
L-845072 -845311
L-845072 845451
L-845044 845395
L-845016 845367
L-844960 845339
L-844847 845339
L-844791 845367
" />
<path d="M-844510 -845255
L-844482 -845227
L-844510 -845199
L-844538 -845227
L-844510 -845255
L-844510 -845199
" />
<path d="M-844510 845367
L-844482 845395
L-844510 845423
L-844538 845395
L-844510 845367
L-844510 845423
" />
<path d="M-843471 -845199
L-843808 -845199
" />
<path d="M-843639 -845199
L-843639 845142
L-843696 845227
L-843752 845283
L-843808 845311
" />
<path d="M-842796 845114
L-843302 -845058
" />
<path d="M-842291 -845199
L-842628 -845199
" />
<path d="M-842459 -845199
L-842459 845142
L-842516 845227
L-842572 845283
L-842628 845311
" />
<path d="M-845353 -845227
L-845269 -845199
L-845128 -845199
L-845072 -845227
L-845044 -845255
L-845016 -845311
L-845016 -845367
L-845044 -845423
L-845072 -845451
L-845128 845451
L-845241 845423
L-845297 845395
L-845325 845367
L-845353 845311
L-845353 845255
L-845325 845199
L-845297 845171
L-845241 845142
L-845100 845142
L-845016 845171
" />
<path d="M-844763 -845199
L-844763 845339
" />
<path d="M-844763 845142
L-844791 845171
L-844763 845199
L-844735 845171
L-844763 845142
L-844763 845199
" />
<path d="M-844538 845339
L-844229 845339
L-844538 -845199
L-844229 -845199
" />
<path d="M-843780 -845227
L-843836 -845199
L-843948 -845199
L-844005 -845227
L-844033 -845283
L-844033 845423
L-844005 845367
L-843948 845339
L-843836 845339
L-843780 845367
L-843752 845423
L-843752 -845451
L-844033 -845395
" />
<path d="M-843499 -845255
L-843471 -845227
L-843499 -845199
L-843527 -845227
L-843499 -845255
L-843499 -845199
" />
<path d="M-843499 845367
L-843471 845395
L-843499 845423
L-843527 845395
L-843499 845367
L-843499 845423
" />
<path d="M-842796 -845367
L-842516 -845367
" />
<path d="M-842853 -845199
L-842656 845142
L-842459 -845199
" />
<path d="M-842010 845339
L-842010 -845199
" />
<path d="M-842150 845114
L-842291 -845395
L-841926 -845395
" />
</g>
<g style="fill:#000000; fill-opacity:0.0; 
stroke:#000000; stroke-width:118; stroke-opacity:1; 
stroke-linecap:round; stroke-linejoin:round;">
<path d="M-844988 -845199
L-845185 845451
" />
<path d="M-845325 -845199
L-845325 845142
L-845100 845142
L-845044 845171
L-845016 845199
L-844988 845255
L-844988 845339
L-845016 845395
L-845044 845423
L-845100 845451
L-845325 845451
" />
<path d="M-844510 -845227
L-844566 -845199
L-844679 -845199
L-844735 -845227
L-844763 -845283
L-844763 845423
L-844735 845367
L-844679 845339
L-844566 845339
L-844510 845367
L-844482 845423
L-844482 -845451
L-844763 -845395
" />
<path d="M-844286 845339
L-844145 -845199
L-844005 845339
" />
<path d="M-843780 -845255
L-843752 -845227
L-843780 -845199
L-843808 -845227
L-843780 -845255
L-843780 -845199
" />
<path d="M-843780 845367
L-843752 845395
L-843780 845423
L-843808 845395
L-843780 845367
L-843780 845423
" />
<path d="M-842740 -845199
L-843077 -845199
" />
<path d="M-842909 -845199
L-842909 845142
L-842965 845227
L-843021 845283
L-843077 845311
" />
</g>
<g style="fill:#000000; fill-opacity:0.0; 
stroke:#000000; stroke-width:19.685; stroke-opacity:1; 
stroke-linecap:round; stroke-linejoin:round;">
<path d="M-845325 -845199
L-845325 845142
" />
<path d="M-844988 -845199
L-845241 845395
" />
<path d="M-844988 845142
L-845325 -845451
" />
<path d="M-844735 -845199
L-844735 845339
" />
<path d="M-844735 845142
L-844763 845171
L-844735 845199
L-844707 845171
L-844735 845142
L-844735 845199
" />
<path d="M-844117 -845255
L-844145 -845227
L-844229 -845199
L-844286 -845199
L-844370 -845227
L-844426 -845283
L-844454 -845339
L-844482 -845451
L-844482 845395
L-844454 845283
L-844426 845227
L-844370 845171
L-844286 845142
L-844229 845142
L-844145 845171
L-844117 845199
" />
<path d="M-843611 -845199
L-843611 845423
L-843639 845367
L-843696 845339
L-843808 845339
L-843864 845367
" />
<path d="M-843611 -845227
L-843667 -845199
L-843808 -845199
L-843864 -845227
L-843892 -845283
L-843892 -845339
L-843864 -845395
L-843808 -845423
L-843667 -845423
L-843611 -845451
" />
<path d="M-843077 -845199
L-843077 845142
" />
<path d="M-843077 -845227
L-843134 -845199
L-843246 -845199
L-843302 -845227
L-843330 -845255
L-843358 -845311
L-843358 845451
L-843330 845395
L-843302 845367
L-843246 845339
L-843134 845339
L-843077 845367
" />
<path d="M-842347 845423
L-842150 845423
" />
<path d="M-842066 -845199
L-842347 -845199
L-842347 845142
L-842066 845142
" />
<path d="M-841813 -845255
L-841785 -845227
L-841813 -845199
L-841841 -845227
L-841813 -845255
L-841813 -845199
" />
<path d="M-841532 -845199
L-841532 845142
L-841392 845142
L-841307 845171
L-841251 845227
L-841223 845283
L-841195 845395
L-841195 -845451
L-841223 -845339
L-841251 -845283
L-841307 -845227
L-841392 -845199
L-841532 -845199
" />
<path d="M-840942 -845255
L-840914 -845227
L-840942 -845199
L-840970 -845227
L-840942 -845255
L-840942 -845199
" />
<path d="M-840689 -845367
L-840408 -845367
" />
<path d="M-840746 -845199
L-840549 845142
L-840352 -845199
" />
<path d="M-840156 -845255
L-840127 -845227
L-840156 -845199
L-840184 -845227
L-840156 -845255
L-840156 -845199
" />
<path d="M-838976 845339
L-838976 -845002
" />
<path d="M-838976 845367
L-838919 845339
L-838807 845339
L-838751 845367
L-838723 845395
L-838695 845451
L-838695 -845311
L-838723 -845255
L-838751 -845227
L-838807 -845199
L-838919 -845199
L-838976 -845227
" />
<path d="M-838189 -845227
L-838245 -845199
L-838357 -845199
L-838414 -845227
L-838442 -845255
L-838470 -845311
L-838470 845451
L-838442 845395
L-838414 845367
L-838357 845339
L-838245 845339
L-838189 845367
" />
<path d="M-837936 -845199
L-837936 845142
" />
<path d="M-837936 845367
L-837880 845339
L-837767 845339
L-837711 845367
L-837683 845395
L-837655 845451
L-837655 -845311
L-837683 -845255
L-837711 -845227
L-837767 -845199
L-837880 -845199
L-837936 -845227
" />
<path d="M-837402 845339
L-837402 -845199
" />
<path d="M-837402 845395
L-837374 845367
L-837318 845339
L-837234 845339
L-837177 845367
L-837149 845423
L-837149 -845199
" />
<path d="M-836644 -845227
L-836700 -845199
L-836812 -845199
L-836868 -845227
L-836896 -845283
L-836896 845423
L-836868 845367
L-836812 845339
L-836700 845339
L-836644 845367
L-836616 845423
L-836616 -845451
L-836896 -845395
" />
<path d="M-836419 845339
L-836306 -845199
L-836194 845451
L-836082 -845199
L-835969 845339
" />
<path d="M-835126 -844974
L-835155 -845002
L-835211 -845086
L-835239 -845142
L-835267 -845227
L-835295 -845367
L-835295 845451
L-835267 845311
L-835239 845227
L-835211 845171
L-835155 845086
L-835126 845058
" />
<path d="M-834930 845199
L-834902 845171
L-834846 845142
L-834705 845142
L-834649 845171
L-834621 845199
L-834593 845255
L-834593 845311
L-834621 845395
L-834958 -845199
L-834593 -845199
" />
<path d="M-834227 845142
L-834171 845142
L-834115 845171
L-834087 845199
L-834059 845255
L-834031 845367
L-834031 -845423
L-834059 -845311
L-834087 -845255
L-834115 -845227
L-834171 -845199
L-834227 -845199
L-834284 -845227
L-834312 -845255
L-834340 -845311
L-834368 -845423
L-834368 845367
L-834340 845255
L-834312 845199
L-834284 845171
L-834227 845142
" />
<path d="M-833469 -845199
L-833806 -845199
" />
<path d="M-833637 -845199
L-833637 845142
L-833694 845227
L-833750 845283
L-833806 845311
" />
<path d="M-833272 845142
L-832907 845142
L-833104 845367
L-833019 845367
L-832963 845395
L-832935 845423
L-832907 -845451
L-832907 -845311
L-832935 -845255
L-832963 -845227
L-833019 -845199
L-833188 -845199
L-833244 -845227
L-833272 -845255
" />
<path d="M-832654 -845423
L-832205 -845423
" />
<path d="M-831924 -845199
L-831924 845339
" />
<path d="M-831924 845395
L-831896 845367
L-831839 845339
L-831755 845339
L-831699 845367
L-831671 845423
L-831671 -845199
" />
<path d="M-831671 845423
L-831643 845367
L-831586 845339
L-831502 845339
L-831446 845367
L-831418 845423
L-831418 -845199
" />
<path d="M-830884 -845199
L-830884 845423
L-830912 845367
L-830968 845339
L-831081 845339
L-831137 845367
" />
<path d="M-830884 -845227
L-830940 -845199
L-831081 -845199
L-831137 -845227
L-831165 -845283
L-831165 -845339
L-831137 -845395
L-831081 -845423
L-830940 -845423
L-830884 -845451
" />
<path d="M-830603 -845199
L-830603 845339
" />
<path d="M-830603 845451
L-830575 845395
L-830547 845367
L-830491 845339
L-830435 845339
" />
<path d="M-830238 -845423
L-829788 -845423
" />
<path d="M-829198 -845199
L-829536 -845199
" />
<path d="M-829367 -845199
L-829367 845142
L-829423 845227
L-829479 845283
L-829536 845311
" />
<path d="M-829002 845142
L-828636 845142
L-828833 845367
L-828749 845367
L-828693 845395
L-828665 845423
L-828636 -845451
L-828636 -845311
L-828665 -845255
L-828693 -845227
L-828749 -845199
L-828917 -845199
L-828974 -845227
L-829002 -845255
" />
<path d="M-828440 -844974
L-828412 -845002
L-828356 -845086
L-828327 -845142
L-828299 -845227
L-828271 -845367
L-828271 845451
L-828299 845311
L-828327 845227
L-828356 845171
L-828412 845086
L-828440 845058
" />
<path d="M-827990 -845423
L-827541 -845423
" />
<path d="M-827344 845339
L-827119 845339
" />
<path d="M-827260 845142
L-827260 -845283
L-827232 -845227
L-827176 -845199
L-827119 -845199
" />
<path d="M-826698 -845227
L-826754 -845199
L-826866 -845199
L-826923 -845227
L-826951 -845283
L-826951 845423
L-826923 845367
L-826866 845339
L-826754 845339
L-826698 845367
L-826670 845423
L-826670 -845451
L-826951 -845395
" />
<path d="M-826445 -845227
L-826389 -845199
L-826276 -845199
L-826220 -845227
L-826192 -845283
L-826192 -845311
L-826220 -845367
L-826276 -845395
L-826361 -845395
L-826417 -845423
L-826445 845451
L-826445 845423
L-826417 845367
L-826361 845339
L-826276 845339
L-826220 845367
" />
<path d="M-826024 845339
L-825799 845339
" />
<path d="M-825939 845142
L-825939 -845283
L-825911 -845227
L-825855 -845199
L-825799 -845199
" />
<path d="M-825602 -845199
L-825602 845339
" />
<path d="M-825602 845142
L-825630 845171
L-825602 845199
L-825574 845171
L-825602 845142
L-825602 845199
" />
<path d="M-825321 845339
L-825321 -845199
" />
<path d="M-825321 845395
L-825293 845367
L-825237 845339
L-825153 845339
L-825096 845367
L-825068 845423
L-825068 -845199
" />
<path d="M-824535 845339
L-824535 -845114
L-824563 -845058
L-824591 -845030
L-824647 -845002
L-824731 -845002
L-824787 -845030
" />
<path d="M-824535 -845227
L-824591 -845199
L-824703 -845199
L-824759 -845227
L-824787 -845255
L-824816 -845311
L-824816 845451
L-824787 845395
L-824759 845367
L-824703 845339
L-824591 845339
L-824535 845367
" />
<path d="M-845325 -845199
L-845325 845142
L-845185 845142
L-845100 845171
L-845044 845227
L-845016 845283
L-844988 845395
L-844988 -845451
L-845016 -845339
L-845044 -845283
L-845100 -845227
L-845185 -845199
L-845325 -845199
" />
<path d="M-844482 -845199
L-844482 845423
L-844510 845367
L-844566 845339
L-844679 845339
L-844735 845367
" />
<path d="M-844482 -845227
L-844538 -845199
L-844679 -845199
L-844735 -845227
L-844763 -845283
L-844763 -845339
L-844735 -845395
L-844679 -845423
L-844538 -845423
L-844482 -845451
" />
<path d="M-844286 845339
L-844061 845339
" />
<path d="M-844201 845142
L-844201 -845283
L-844173 -845227
L-844117 -845199
L-844061 -845199
" />
<path d="M-843639 -845227
L-843696 -845199
L-843808 -845199
L-843864 -845227
L-843892 -845283
L-843892 845423
L-843864 845367
L-843808 845339
L-843696 845339
L-843639 845367
L-843611 845423
L-843611 -845451
L-843892 -845395
" />
<path d="M-843358 -845255
L-843330 -845227
L-843358 -845199
L-843386 -845227
L-843358 -845255
L-843358 -845199
" />
<path d="M-843358 845367
L-843330 845395
L-843358 845423
L-843386 845395
L-843358 845367
L-843358 845423
" />
<path d="M-842656 845199
L-842628 845171
L-842572 845142
L-842431 845142
L-842375 845171
L-842347 845199
L-842319 845255
L-842319 845311
L-842347 845395
L-842684 -845199
L-842319 -845199
" />
<path d="M-842122 845142
L-841757 845142
L-841954 845367
L-841869 845367
L-841813 845395
L-841785 845423
L-841757 -845451
L-841757 -845311
L-841785 -845255
L-841813 -845227
L-841869 -845199
L-842038 -845199
L-842094 -845227
L-842122 -845255
" />
<path d="M-840970 -845199
L-841026 -845227
L-841055 -845283
L-841055 845142
" />
<path d="M-840493 845339
L-840493 -845199
" />
<path d="M-840746 845339
L-840746 -845283
L-840717 -845227
L-840661 -845199
L-840577 -845199
L-840521 -845227
L-840493 -845255
" />
<path d="M-839959 845339
L-839959 -845114
L-839987 -845058
L-840015 -845030
L-840071 -845002
L-840156 -845002
L-840212 -845030
" />
<path d="M-839959 -845227
L-840015 -845199
L-840127 -845199
L-840184 -845227
L-840212 -845255
L-840240 -845311
L-840240 845451
L-840212 845395
L-840184 845367
L-840127 845339
L-840015 845339
L-839959 845367
" />
<path d="M-839256 845199
L-839228 845171
L-839172 845142
L-839032 845142
L-838976 845171
L-838947 845199
L-838919 845255
L-838919 845311
L-838947 845395
L-839285 -845199
L-838919 -845199
" />
<path d="M-838554 845142
L-838498 845142
L-838442 845171
L-838414 845199
L-838386 845255
L-838357 845367
L-838357 -845423
L-838386 -845311
L-838414 -845255
L-838442 -845227
L-838498 -845199
L-838554 -845199
L-838610 -845227
L-838638 -845255
L-838666 -845311
L-838695 -845423
L-838695 845367
L-838666 845255
L-838638 845199
L-838610 845171
L-838554 845142
" />
<path d="M-837796 -845199
L-838133 -845199
" />
<path d="M-837964 -845199
L-837964 845142
L-838020 845227
L-838076 845283
L-838133 845311
" />
<path d="M-837290 845339
L-837290 -845199
" />
<path d="M-837430 845114
L-837571 -845395
L-837206 -845395
" />
<path d="M-845466 -845466
L-845466 -845466
" />
<path d="M-845466 -845466
L-845466 -845466
" />
<path d="M-845466 -845466
L-845466 -845466
" />
</g>
<g style="fill:#000000; fill-opacity:0.0; 
stroke:#000000; stroke-width:59.0551; stroke-opacity:1; 
stroke-linecap:round; stroke-linejoin:round;">
<path d="M61000 57000
L79000 57000
" />
<path d="M61000 36500
L61000 57000
" />
<path d="M79000 36500
L56500 36500
" />
<path d="M79000 57000
L79000 36500
" />
</g>
<g style="fill:#000000; fill-opacity:0.0; 
stroke:#000000; stroke-width:100; stroke-opacity:1; 
stroke-linecap:round; stroke-linejoin:round;">
<path d="M75963 37673
L75735 37673
" />
<path d="M75849 37673
L75849 37273
L75811 37331
L75773 37369
L75735 37388
" />
<path d="M76135 37673
L76135 37273
L76287 37273
L76325 37292
L76344 37311
L76363 37350
L76363 37407
L76344 37445
L76325 37464
L76287 37483
L76135 37483
" />
<path d="M76535 37673
L76535 37273
" />
<path d="M76725 37673
L76725 37273
L76954 37673
L76954 37273
" />
<path d="M75963 41020
L75735 41020
" />
<path d="M75849 41020
L75849 40620
L75811 40677
L75773 40715
L75735 40734
" />
<path d="M76135 41020
L76135 40620
L76287 40620
L76325 40639
L76344 40658
L76363 40696
L76363 40753
L76344 40791
L76325 40810
L76287 40829
L76135 40829
" />
<path d="M76535 41020
L76535 40620
" />
<path d="M76725 41020
L76725 40620
L76954 41020
L76954 40620
" />
<path d="M75963 44366
L75735 44366
" />
<path d="M75849 44366
L75849 43966
L75811 44023
L75773 44062
L75735 44081
" />
<path d="M76135 44366
L76135 43966
L76287 43966
L76325 43985
L76344 44004
L76363 44042
L76363 44100
L76344 44138
L76325 44157
L76287 44176
L76135 44176
" />
<path d="M76535 44366
L76535 43966
" />
<path d="M76725 44366
L76725 43966
L76954 44366
L76954 43966
" />
<path d="M75963 47713
L75735 47713
" />
<path d="M75849 47713
L75849 47313
L75811 47370
L75773 47408
L75735 47427
" />
<path d="M76135 47713
L76135 47313
L76287 47313
L76325 47332
L76344 47351
L76363 47389
L76363 47446
L76344 47484
L76325 47503
L76287 47522
L76135 47522
" />
<path d="M76535 47713
L76535 47313
" />
<path d="M76725 47713
L76725 47313
L76954 47713
L76954 47313
" />
<path d="M75963 51059
L75735 51059
" />
<path d="M75849 51059
L75849 50659
L75811 50716
L75773 50754
L75735 50773
" />
<path d="M76135 51059
L76135 50659
L76287 50659
L76325 50678
L76344 50697
L76363 50735
L76363 50793
L76344 50831
L76325 50850
L76287 50869
L76135 50869
" />
<path d="M76535 51059
L76535 50659
" />
<path d="M76725 51059
L76725 50659
L76954 51059
L76954 50659
" />
<path d="M75963 54406
L75735 54406
" />
<path d="M75849 54406
L75849 54006
L75811 54063
L75773 54101
L75735 54120
" />
<path d="M76135 54406
L76135 54006
L76287 54006
L76325 54025
L76344 54044
L76363 54082
L76363 54139
L76344 54177
L76325 54196
L76287 54215
L76135 54215
" />
<path d="M76535 54406
L76535 54006
" />
<path d="M76725 54406
L76725 54006
L76954 54406
L76954 54006
" />
<path d="M72617 54406
L72388 54406
" />
<path d="M72503 54406
L72503 54006
L72465 54063
L72426 54101
L72388 54120
" />
<path d="M72788 54406
L72788 54006
L72941 54006
L72979 54025
L72998 54044
L73017 54082
L73017 54139
L72998 54177
L72979 54196
L72941 54215
L72788 54215
" />
<path d="M73188 54406
L73188 54006
" />
<path d="M73379 54406
L73379 54006
L73607 54406
L73607 54006
" />
<path d="M69270 54406
L69042 54406
" />
<path d="M69156 54406
L69156 54006
L69118 54063
L69080 54101
L69042 54120
" />
<path d="M69442 54406
L69442 54006
L69594 54006
L69632 54025
L69651 54044
L69670 54082
L69670 54139
L69651 54177
L69632 54196
L69594 54215
L69442 54215
" />
<path d="M69842 54406
L69842 54006
" />
<path d="M70032 54406
L70032 54006
L70261 54406
L70261 54006
" />
<path d="M65924 54406
L65695 54406
" />
<path d="M65810 54406
L65810 54006
L65772 54063
L65734 54101
L65695 54120
" />
<path d="M66095 54406
L66095 54006
L66248 54006
L66286 54025
L66305 54044
L66324 54082
L66324 54139
L66305 54177
L66286 54196
L66248 54215
L66095 54215
" />
<path d="M66495 54406
L66495 54006
" />
<path d="M66686 54406
L66686 54006
L66914 54406
L66914 54006
" />
</g>
<g style="fill:#000000; fill-opacity:0.0; 
stroke:#000000; stroke-width:80; stroke-opacity:1; 
stroke-linecap:round; stroke-linejoin:round;">
<path d="M66610 49110
L66610 48710
L66705 48710
L66762 48729
L66800 48767
L66819 48805
L66838 48881
L66838 48938
L66819 49014
L66800 49052
L66762 49091
L66705 49110
L66610 49110
" />
<path d="M67219 49110
L66991 49110
" />
<path d="M67105 49110
L67105 48710
L67067 48767
L67029 48805
L66991 48824
" />
<path d="M66610 50488
L66610 50088
L66705 50088
L66762 50107
L66800 50145
L66819 50183
L66838 50259
L66838 50316
L66819 50392
L66800 50430
L66762 50468
L66705 50488
L66610 50488
" />
<path d="M66991 50126
L67010 50107
L67048 50088
L67143 50088
L67181 50107
L67200 50126
L67219 50164
L67219 50202
L67200 50259
L66972 50488
L67219 50488
" />
<path d="M66515 51854
L66515 51454
L66611 51454
L66668 51473
L66706 51511
L66725 51549
L66744 51625
L66744 51682
L66725 51758
L66706 51797
L66668 51835
L66611 51854
L66515 51854
" />
<path d="M66877 51454
L67125 51454
L66991 51606
L67049 51606
L67087 51625
L67106 51644
L67125 51682
L67125 51777
L67106 51816
L67087 51835
L67049 51854
L66934 51854
L66896 51835
L66877 51816
" />
<path d="M66610 53243
L66610 52843
L66705 52843
L66762 52862
L66800 52901
L66819 52939
L66838 53015
L66838 53072
L66819 53148
L66800 53186
L66762 53224
L66705 53243
L66610 53243
" />
<path d="M67181 52977
L67181 53243
" />
<path d="M67086 52824
L66991 53110
L67238 53110
" />
<path d="M67204 39680
L67204 39280
L67300 39280
L67357 39300
L67395 39338
L67414 39376
L67433 39452
L67433 39509
L67414 39585
L67395 39623
L67357 39661
L67300 39680
L67204 39680
" />
<path d="M67795 39280
L67604 39280
L67585 39471
L67604 39452
L67642 39433
L67738 39433
L67776 39452
L67795 39471
L67814 39509
L67814 39604
L67795 39642
L67776 39661
L67738 39680
L67642 39680
L67604 39661
L67585 39642
" />
<path d="M67204 41180
L67204 40780
L67300 40780
L67357 40800
L67395 40838
L67414 40876
L67433 40952
L67433 41009
L67414 41085
L67395 41123
L67357 41161
L67300 41180
L67204 41180
" />
<path d="M67776 40780
L67700 40780
L67661 40800
L67642 40819
L67604 40876
L67585 40952
L67585 41104
L67604 41142
L67623 41161
L67661 41180
L67738 41180
L67776 41161
L67795 41142
L67814 41104
L67814 41009
L67795 40971
L67776 40952
L67738 40933
L67661 40933
L67623 40952
L67604 40971
L67585 41009
" />
<path d="M67204 44180
L67204 43780
L67300 43780
L67357 43800
L67395 43838
L67414 43876
L67433 43952
L67433 44009
L67414 44085
L67395 44123
L67357 44161
L67300 44180
L67204 44180
" />
<path d="M67566 43780
L67833 43780
L67661 44180
" />
<path d="M67204 42680
L67204 42280
L67300 42280
L67357 42300
L67395 42338
L67414 42376
L67433 42452
L67433 42509
L67414 42585
L67395 42623
L67357 42661
L67300 42680
L67204 42680
" />
<path d="M67661 42452
L67623 42433
L67604 42414
L67585 42376
L67585 42357
L67604 42319
L67623 42300
L67661 42280
L67738 42280
L67776 42300
L67795 42319
L67814 42357
L67814 42376
L67795 42414
L67776 42433
L67738 42452
L67661 42452
L67623 42471
L67604 42490
L67585 42528
L67585 42604
L67604 42642
L67623 42661
L67661 42680
L67738 42680
L67776 42661
L67795 42642
L67814 42604
L67814 42528
L67795 42490
L67776 42471
L67738 42452
" />
</g>
<g style="fill:#000000; fill-opacity:0.0; 
stroke:#000000; stroke-width:35; stroke-opacity:1; 
stroke-linecap:round; stroke-linejoin:round;">
<path d="M74478 42035
L74478 41735
L74550 41735
L74592 41750
L74621 41778
L74635 41807
L74650 41864
L74650 41907
L74635 41964
L74621 41992
L74592 42021
L74550 42035
L74478 42035
" />
<path d="M74792 42035
L74850 42035
L74878 42021
L74892 42007
L74921 41964
L74935 41907
L74935 41792
L74921 41764
L74907 41750
L74878 41735
L74821 41735
L74792 41750
L74778 41764
L74764 41792
L74764 41864
L74778 41892
L74792 41907
L74821 41921
L74878 41921
L74907 41907
L74921 41892
L74935 41864
" />
<path d="M73807 44135
L73664 44135
L73664 43835
" />
<path d="M73907 43978
L74007 43978
" />
<path d="M74050 44135
L73907 44135
L73907 43835
L74050 43835
" />
<path d="M74178 44135
L74178 43835
L74250 43835
L74292 43850
L74321 43878
L74335 43907
L74350 43964
L74350 44007
L74335 44064
L74321 44092
L74292 44121
L74250 44135
L74178 44135
" />
</g>
<g style="fill:#000000; fill-opacity:0.0; 
stroke:#000000; stroke-width:100; stroke-opacity:1; 
stroke-linecap:round; stroke-linejoin:round;">
<path d="M62704 47580
L62704 47180
L62857 47180
L62895 47200
L62914 47219
L62933 47257
L62933 47314
L62914 47352
L62895 47371
L62857 47390
L62704 47390
" />
<path d="M63314 47580
L63085 47580
" />
<path d="M63200 47580
L63200 47180
L63161 47238
L63123 47276
L63085 47295
" />
<path d="M62704 50980
L62704 50580
L62857 50580
L62895 50600
L62914 50619
L62933 50657
L62933 50714
L62914 50752
L62895 50771
L62857 50790
L62704 50790
" />
<path d="M63085 50619
L63104 50600
L63142 50580
L63238 50580
L63276 50600
L63295 50619
L63314 50657
L63314 50695
L63295 50752
L63066 50980
L63314 50980
" />
</g>
<g style="fill:#000000; fill-opacity:0.0; 
stroke:#000000; stroke-width:120; stroke-opacity:1; 
stroke-linecap:round; stroke-linejoin:round;">
<path d="M61371 42242
L60771 42242
L60771 42014
L60800 41957
L60828 41928
L60885 41900
L60971 41900
L61028 41928
L61057 41957
L61085 42014
L61085 42242
" />
<path d="M60771 41700
L60771 41328
L61000 41528
L61000 41442
L61028 41385
L61057 41357
L61114 41328
L61257 41328
L61314 41357
L61342 41385
L61371 41442
L61371 41614
L61342 41671
L61314 41700
" />
<path d="M65314 43071
L65342 43099
L65371 43185
L65371 43242
L65342 43328
L65285 43385
L65228 43414
L65114 43442
L65028 43442
L64914 43414
L64857 43385
L64800 43328
L64771 43242
L64771 43185
L64800 43099
L64828 43071
" />
<path d="M64771 42699
L64771 42585
L64800 42528
L64857 42471
L64971 42442
L65171 42442
L65285 42471
L65342 42528
L65371 42585
L65371 42699
L65342 42757
L65285 42814
L65171 42842
L64971 42842
L64857 42814
L64800 42757
L64771 42699
" />
<path d="M65371 42185
L64771 42185
L65371 41842
L64771 41842
" />
<path d="M65371 41557
L64771 41557
L65371 41214
L64771 41214
" />
<path d="M65428 41071
L65428 40614
" />
<path d="M64828 40500
L64800 40471
L64771 40414
L64771 40271
L64800 40214
L64828 40185
L64885 40157
L64942 40157
L65028 40185
L65371 40528
L65371 40157
" />
</g>
<g style="fill:#000000; fill-opacity:0.0; 
stroke:#000000; stroke-width:100; stroke-opacity:1; 
stroke-linecap:round; stroke-linejoin:round;">
<path d="M71204 38980
L71204 38580
L71357 38580
L71395 38600
L71414 38619
L71433 38657
L71433 38714
L71414 38752
L71395 38771
L71357 38790
L71204 38790
" />
<path d="M71795 38580
L71604 38580
L71585 38771
L71604 38752
L71642 38733
L71738 38733
L71776 38752
L71795 38771
L71814 38809
L71814 38904
L71795 38942
L71776 38961
L71738 38980
L71642 38980
L71604 38961
L71585 38942
" />
<path d="M74104 38880
L74104 38480
L74257 38480
L74295 38500
L74314 38519
L74333 38557
L74333 38614
L74314 38652
L74295 38671
L74257 38690
L74104 38690
" />
<path d="M74676 38480
L74600 38480
L74561 38500
L74542 38519
L74504 38576
L74485 38652
L74485 38804
L74504 38842
L74523 38861
L74561 38880
L74638 38880
L74676 38861
L74695 38842
L74714 38804
L74714 38709
L74695 38671
L74676 38652
L74638 38633
L74561 38633
L74523 38652
L74504 38671
L74485 38709
" />
</g>
<g style="fill:#000000; fill-opacity:0.0; 
stroke:#000000; stroke-width:80; stroke-opacity:1; 
stroke-linecap:round; stroke-linejoin:round;">
<path d="M73719 44538
L73700 44576
L73661 44614
L73604 44671
L73585 44709
L73585 44747
" />
<path d="M73680 44728
L73661 44766
L73623 44804
L73547 44823
L73414 44823
L73338 44804
L73300 44766
L73280 44728
L73280 44652
L73300 44614
L73338 44576
L73414 44557
L73547 44557
L73623 44576
L73661 44614
L73680 44652
L73680 44728
" />
<path d="M73680 44176
L73680 44404
" />
<path d="M73680 44290
L73280 44290
L73338 44328
L73376 44366
L73395 44404
" />
<path d="M70180 45023
L69780 45023
L70180 44795
L69780 44795
" />
<path d="M70180 44604
L69780 44604
L69780 44452
L69800 44414
L69819 44395
L69857 44376
L69914 44376
L69952 44395
L69971 44414
L69990 44452
L69990 44604
" />
<path d="M70180 44204
L69780 44204
L70180 43976
L69780 43976
" />
</g>
<g style="fill:#000000; fill-opacity:0.0; 
stroke:#000000; stroke-width:60; stroke-opacity:1; 
stroke-linecap:round; stroke-linejoin:round;">
<path d="M72109 48371
L72109 47771
" />
<path d="M72528 48314
L72509 48342
L72452 48371
L72414 48371
L72357 48342
L72319 48285
L72300 48228
L72280 48114
L72280 48028
L72300 47914
L72319 47857
L72357 47800
L72414 47771
L72452 47771
L72509 47800
L72528 47828
" />
<path d="M72909 48371
L72680 48371
" />
<path d="M72795 48371
L72795 47771
L72757 47857
L72719 47914
L72680 47942
" />
<path d="M72050 48892
L72050 49226
" />
<path d="M71966 48702
L71883 49059
L72100 49059
" />
<path d="M72233 49226
L72233 48726
L72433 49226
L72433 48726
" />
<path d="M72566 48726
L72783 48726
L72666 48916
L72716 48916
L72750 48940
L72766 48964
L72783 49011
L72783 49130
L72766 49178
L72750 49202
L72716 49226
L72616 49226
L72583 49202
L72566 49178
" />
<path d="M73100 48726
L72933 48726
L72916 48964
L72933 48940
L72966 48916
L73050 48916
L73083 48940
L73100 48964
L73116 49011
L73116 49130
L73100 49178
L73083 49202
L73050 49226
L72966 49226
L72933 49202
L72916 49178
" />
</g>
<g style="fill:#000000; fill-opacity:0.0; 
stroke:#000000; stroke-width:100; stroke-opacity:1; 
stroke-linecap:round; stroke-linejoin:round;">
<path d="M62578 54406
L62349 54406
" />
<path d="M62463 54406
L62463 54006
L62425 54063
L62387 54101
L62349 54120
" />
<path d="M62749 54406
L62749 54006
L62901 54006
L62939 54025
L62958 54044
L62978 54082
L62978 54139
L62958 54177
L62939 54196
L62901 54215
L62749 54215
" />
<path d="M63149 54406
L63149 54006
" />
<path d="M63339 54406
L63339 54006
L63568 54406
L63568 54006
" />
</g>
<g style="fill:#000000; fill-opacity:0.0; 
stroke:#000000; stroke-width:150; stroke-opacity:1; 
stroke-linecap:round; stroke-linejoin:round;">
<circle cx="76354.3" cy="38692.9" r="900" /> 
<circle cx="76354.3" cy="42039.4" r="900" /> 
<circle cx="76354.3" cy="45385.8" r="900" /> 
<circle cx="76354.3" cy="48732.3" r="900" /> 
<circle cx="76354.3" cy="52078.7" r="900" /> 
<circle cx="76354.3" cy="55425.2" r="900" /> 
<circle cx="73007.9" cy="55425.2" r="900" /> 
<circle cx="69661.4" cy="55425.2" r="900" /> 
<circle cx="66315" cy="55425.2" r="900" /> 
</g>
<g style="fill:#000000; fill-opacity:0.0; 
stroke:#000000; stroke-width:120; stroke-opacity:1; 
stroke-linecap:round; stroke-linejoin:round;">
<path d="M68405 48929
L68105 48929
" />
<path d="M68105 48929
L68105 48529
" />
<path d="M68105 48529
L65705 48529
" />
<path d="M65705 48529
L65705 48929
" />
<path d="M65705 48929
L65405 48929
" />
<path d="M65705 48929
L65705 49329
" />
<path d="M65705 49329
L68105 49329
" />
<path d="M68105 49329
L68105 48929
" />
<path d="M67905 48529
L67905 49329
" />
<path d="M67805 49329
L67805 48529
" />
<path d="M65405 50307
L65705 50307
" />
<path d="M65705 50307
L65705 50707
" />
<path d="M65705 50707
L68105 50707
" />
<path d="M68105 50707
L68105 50307
" />
<path d="M68105 50307
L68405 50307
" />
<path d="M68105 50307
L68105 49907
" />
<path d="M68105 49907
L65705 49907
" />
<path d="M65705 49907
L65705 50307
" />
<path d="M65905 50707
L65905 49907
" />
<path d="M66005 49907
L66005 50707
" />
<path d="M68405 51685
L68105 51685
" />
<path d="M68105 51685
L68105 51285
" />
<path d="M68105 51285
L65705 51285
" />
<path d="M65705 51285
L65705 51685
" />
<path d="M65705 51685
L65405 51685
" />
<path d="M65705 51685
L65705 52085
" />
<path d="M65705 52085
L68105 52085
" />
<path d="M68105 52085
L68105 51685
" />
<path d="M67905 51285
L67905 52085
" />
<path d="M67805 52085
L67805 51285
" />
<path d="M65405 53062
L65705 53062
" />
<path d="M65705 53062
L65705 53462
" />
<path d="M65705 53462
L68105 53462
" />
<path d="M68105 53462
L68105 53062
" />
<path d="M68105 53062
L68405 53062
" />
<path d="M68105 53062
L68105 52662
" />
<path d="M68105 52662
L65705 52662
" />
<path d="M65705 52662
L65705 53062
" />
<path d="M65905 53462
L65905 52662
" />
<path d="M66005 52662
L66005 53462
" />
<path d="M69000 39500
L68700 39500
" />
<path d="M68700 39500
L68700 39100
" />
<path d="M68700 39100
L66300 39100
" />
<path d="M66300 39100
L66300 39500
" />
<path d="M66300 39500
L66000 39500
" />
<path d="M66300 39500
L66300 39900
" />
<path d="M66300 39900
L68700 39900
" />
<path d="M68700 39900
L68700 39500
" />
<path d="M68500 39100
L68500 39900
" />
<path d="M68400 39900
L68400 39100
" />
<path d="M66000 41000
L66300 41000
" />
<path d="M66300 41000
L66300 41400
" />
<path d="M66300 41400
L68700 41400
" />
<path d="M68700 41400
L68700 41000
" />
<path d="M68700 41000
L69000 41000
" />
<path d="M68700 41000
L68700 40600
" />
<path d="M68700 40600
L66300 40600
" />
<path d="M66300 40600
L66300 41000
" />
<path d="M66500 41400
L66500 40600
" />
<path d="M66600 40600
L66600 41400
" />
<path d="M69000 44000
L68700 44000
" />
<path d="M68700 44000
L68700 43600
" />
<path d="M68700 43600
L66300 43600
" />
<path d="M66300 43600
L66300 44000
" />
<path d="M66300 44000
L66000 44000
" />
<path d="M66300 44000
L66300 44400
" />
<path d="M66300 44400
L68700 44400
" />
<path d="M68700 44400
L68700 44000
" />
<path d="M68500 43600
L68500 44400
" />
<path d="M68400 44400
L68400 43600
" />
<path d="M66000 42500
L66300 42500
" />
<path d="M66300 42500
L66300 42900
" />
<path d="M66300 42900
L68700 42900
" />
<path d="M68700 42900
L68700 42500
" />
<path d="M68700 42500
L69000 42500
" />
<path d="M68700 42500
L68700 42100
" />
<path d="M68700 42100
L66300 42100
" />
<path d="M66300 42100
L66300 42500
" />
<path d="M66500 42900
L66500 42100
" />
<path d="M66600 42100
L66600 42900
" />
</g>
<g style="fill:#000000; fill-opacity:0.0; 
stroke:#000000; stroke-width:100; stroke-opacity:1; 
stroke-linecap:round; stroke-linejoin:round;">
<path d="M74720 43500
L74720 42500
" />
</g>
<g style="fill:#000000; fill-opacity:0.0; 
stroke:#000000; stroke-width:60; stroke-opacity:1; 
stroke-linecap:round; stroke-linejoin:round;">
<path d="M73639 42615.9 A600 600 0.0 0 0 73500 43000 " />
<path d="M73500.7 43000.2 A599.256 599.256 0.0 0 0 73652 43398 " />
<path d="M74699.3 43000 A599.27 599.27 0.0 0 0 74555 42610 " />
<path d="M74561 43384.1 A600 600 0.0 0 0 74700 43000 " />
<path d="M74587.9 42650.7 A600 600 0.0 0 0 74100 42400 " />
<path d="M74099.7 42400 A600 600 0.0 0 0 73620 42640 " />
<path d="M74100.2 43599.3 A599.294 599.294 0.0 0 0 74573 43368 " />
<path d="M73626.5 43368.6 A600 600 0.0 0 0 74100 43600 " />
<path d="M74100 42750 A250 250 0.0 0 0 73850 43000 " />
<path d="M74100 42600 A400 400 0.0 0 0 73700 43000 " />
<path d="M74100 43250 A250 250 0.0 0 0 74350 43000 " />
<path d="M74100 43400 A400 400 0.0 0 0 74500 43000 " />
</g>
<g style="fill:#000000; fill-opacity:0.0; 
stroke:#000000; stroke-width:100; stroke-opacity:1; 
stroke-linecap:round; stroke-linejoin:round;">
<path d="M74713.7 42486.8 A800 800 0.0 0 0 74100 42200 " />
<path d="M74099.6 42201 A799 799 0.0 0 0 73395 42624 " />
<path d="M74101 43799 A798.972 798.972 0.0 0 0 74710 43516 " />
<path d="M73405.8 43397.6 A800 800 0.0 0 0 74100 43800 " />
<path d="M73395.6 42620.7 A800 800 0.0 0 0 73300 43000 " />
<path d="M73300.4 43000 A799.576 799.576 0.0 0 0 73419 43419 " />
</g>
<g style="fill:#000000; fill-opacity:0.0; 
stroke:#000000; stroke-width:150; stroke-opacity:1; 
stroke-linecap:round; stroke-linejoin:round;">
<circle cx="63000" cy="48600" r="900" /> 
<circle cx="63000" cy="52000" r="900" /> 
</g>
<g style="fill:#000000; fill-opacity:0.0; 
stroke:#000000; stroke-width:120; stroke-opacity:1; 
stroke-linecap:round; stroke-linejoin:round;">
<path d="M64100 39800
L64100 43800
" />
<path d="M64600 39800
L61600 39800
" />
<path d="M61600 39800
L61600 43800
" />
<path d="M61600 43800
L64600 43800
" />
<path d="M64600 43800
L64600 39800
" />
</g>
<g style="fill:#000000; fill-opacity:0.0; 
stroke:#000000; stroke-width:150; stroke-opacity:1; 
stroke-linecap:round; stroke-linejoin:round;">
<circle cx="71500" cy="40000" r="900" /> 
<circle cx="74400" cy="39900" r="900" /> 
</g>
<g style="fill:#000000; fill-opacity:0.0; 
stroke:#000000; stroke-width:120; stroke-opacity:1; 
stroke-linecap:round; stroke-linejoin:round;">
<path d="M73000 44500
L71500 43000
" />
<path d="M71500 43000
L71000 43000
" />
<path d="M71000 43000
L70500 43500
" />
<path d="M70500 43500
L70500 44500
" />
<path d="M70500 44500
L71500 45500
" />
<path d="M71500 45500
L72500 45500
" />
<path d="M72500 45500
L73000 45000
" />
<path d="M73000 45000
L73000 44500
" />
</g>
<g style="fill:#000000; fill-opacity:0.0; 
stroke:#000000; stroke-width:150; stroke-opacity:1; 
stroke-linecap:round; stroke-linejoin:round;">
<path d="M70750 47500
L74250 47500
" />
<path d="M74250 47500
L74250 49500
" />
<path d="M74250 49500
L70750 49500
" />
<path d="M70750 49500
L70750 47500
" />
<path d="M70750 48250
L71250 48250
" />
<path d="M71250 48250
L71250 48750
" />
<path d="M71250 48750
L70750 48750
" />
<circle cx="62968.5" cy="55425.2" r="900" /> 
</g>
<g style="fill:#000000; fill-opacity:0.0; 
stroke:#000000; stroke-width:19.685; stroke-opacity:1; 
stroke-linecap:round; stroke-linejoin:round;">
</g>
<g style="fill:#000000; fill-opacity:1.0; 
stroke:#000000; stroke-width:19.685; stroke-opacity:1; 
stroke-linecap:round; stroke-linejoin:round;">
<circle cx="76354.3" cy="38692.9" r="974.409" /> 
<circle cx="76354.3" cy="42039.4" r="974.409" /> 
<circle cx="76354.3" cy="45385.8" r="974.409" /> 
<circle cx="76354.3" cy="48732.3" r="974.409" /> 
<circle cx="76354.3" cy="52078.7" r="974.409" /> 
<circle cx="76354.3" cy="55425.2" r="974.409" /> 
<circle cx="73007.9" cy="55425.2" r="974.409" /> 
<circle cx="69661.4" cy="55425.2" r="974.409" /> 
<circle cx="66315" cy="55425.2" r="974.409" /> 
<polyline style="fill-rule:evenodd;"
points="68021,49312
68021,48545
68789,48545
68789,49312
68021,49312
" /> 
<circle cx="65405.5" cy="48929.1" r="383.858" /> 
<polyline style="fill-rule:evenodd;"
points="65789,49923
65789,50690
65021,50690
65021,49923
65789,49923
" /> 
<circle cx="68405.5" cy="50307.1" r="383.858" /> 
<polyline style="fill-rule:evenodd;"
points="68140,52068
68140,51301
68670,51301
68670,52068
68140,52068
" /> 
<circle cx="65405.5" cy="51685" r="383.858" /> 
<polyline style="fill-rule:evenodd;"
points="65789,52679
65789,53446
65021,53446
65021,52679
65789,52679
" /> 
<circle cx="68405.5" cy="53063" r="383.858" /> 
<polyline style="fill-rule:evenodd;"
points="68616,39883
68616,39116
69383,39116
69383,39883
68616,39883
" /> 
<circle cx="66000" cy="39500" r="383.858" /> 
<polyline style="fill-rule:evenodd;"
points="66383,40616
66383,41383
65616,41383
65616,40616
66383,40616
" /> 
<circle cx="69000" cy="41000" r="383.858" /> 
<polyline style="fill-rule:evenodd;"
points="68616,44383
68616,43616
69383,43616
69383,44383
68616,44383
" /> 
<circle cx="66000" cy="44000" r="383.858" /> 
<polyline style="fill-rule:evenodd;"
points="66383,42116
66383,42883
65616,42883
65616,42116
66383,42116
" /> 
<circle cx="69000" cy="42500" r="383.858" /> 
<circle cx="73500" cy="43000" r="344.488" /> 
</g>
<g style="fill:#000000; fill-opacity:1.0; 
stroke:#000000; stroke-width:708.661; stroke-opacity:1; 
stroke-linecap:round; stroke-linejoin:round;">
<path d="M74500 42763
L74500 43236
" />
</g>
<g style="fill:#000000; fill-opacity:1.0; 
stroke:#000000; stroke-width:19.685; stroke-opacity:1; 
stroke-linecap:round; stroke-linejoin:round;">
<circle cx="63000" cy="48600" r="790.157" /> 
<circle cx="63000" cy="52000" r="790.157" /> 
<polyline style="fill-rule:evenodd;"
points="63680,43380
62519,43380
62519,42219
63680,42219
63680,43380
" /> 
<circle cx="63100" cy="40800" r="580.709" /> 
<circle cx="71500" cy="40000" r="790.157" /> 
<circle cx="74400" cy="39900" r="790.157" /> 
<polyline style="fill-rule:evenodd;"
points="71765,43765
71234,43765
71234,43234
71765,43234
71765,43765
" /> 
<circle cx="71500" cy="44500" r="265.157" /> 
<circle cx="72500" cy="44500" r="265.157" /> 
<polyline style="fill-rule:evenodd;"
points="71199,50440
71199,49559
71800,49559
71800,50440
71199,50440
" /> 
</g>
<g style="fill:#000000; fill-opacity:1.0; 
stroke:#000000; stroke-width:620; stroke-opacity:1; 
stroke-linecap:round; stroke-linejoin:round;">
<path d="M72500 49860
L72500 50140
" />
<path d="M73500 49860
L73500 50140
" />
<path d="M73500 46860
L73500 47140
" />
<path d="M72500 46860
L72500 47140
" />
<path d="M71500 46860
L71500 47140
" />
</g>
<g style="fill:#000000; fill-opacity:1.0; 
stroke:#000000; stroke-width:19.685; stroke-opacity:1; 
stroke-linecap:round; stroke-linejoin:round;">
<circle cx="62968.5" cy="55425.2" r="974.409" /> 
</g> 
</svg>
